<svg id="Group" xmlns="http://www.w3.org/2000/svg" viewBox="0 0 14 14">
  <defs>
    <style>
      .cls-1 {
        fill: #999;
      }
    </style>
  </defs>
  <path id="Shape" class="cls-1" d="M12.6,6H1.4A1.348,1.348,0,0,1,0,4.714V1.286A1.348,1.348,0,0,1,1.4,0H9.8a.449.449,0,0,1,.467.429A.449.449,0,0,1,9.8.857H1.4a.449.449,0,0,0-.467.429V4.714a.449.449,0,0,0,.467.429H12.6a.449.449,0,0,0,.467-.429V1.286A.449.449,0,0,0,12.6.857H8.867A.449.449,0,0,1,8.4.429.449.449,0,0,1,8.867,0H12.6A1.348,1.348,0,0,1,14,1.286V4.714A1.348,1.348,0,0,1,12.6,6Z" transform="translate(0 8)"/>
  <path id="Shape-2" data-name="Shape" class="cls-1" d="M12.6,6H1.4A1.348,1.348,0,0,1,0,4.714V1.286A1.348,1.348,0,0,1,1.4,0H9.8a.449.449,0,0,1,.467.429A.449.449,0,0,1,9.8.857H1.4a.449.449,0,0,0-.467.429V4.714a.449.449,0,0,0,.467.429H12.6a.449.449,0,0,0,.467-.429V1.286A.449.449,0,0,0,12.6.857H8.867A.449.449,0,0,1,8.4.429.449.449,0,0,1,8.867,0H12.6A1.348,1.348,0,0,1,14,1.286V4.714A1.348,1.348,0,0,1,12.6,6Z"/>
</svg>
