<svg xmlns="http://www.w3.org/2000/svg" width="311.191" height="148.471" viewBox="0 0 311.191 148.471">
  <g id="Gruppe_1112" data-name="Gruppe 1112" transform="translate(-32.897 -227.25)" opacity="0.27">
    <path id="Pfad_1111" data-name="Pfad 1111" d="M700.505,259.6c3.042-19.647,6.035-39.506,6.035-39.506,19.06-.36,28.93-14.23,31-33.9a4.84,4.84,0,0,0-1.14-3.57,4.53,4.53,0,0,0-3.33-1.59l-20.62,2.08-.8-.41c-2.93-5.9-10.16-10.11-18.68-10.27l-7.26-12.52c-.78-1.67-1.67-2.71-3.5-2.65a3.59,3.59,0,0,0-3.29,3c-.35,1.49.64,13.29.64,13.29l-9.05-11.43c-1.18-1.62-2.66-2.32-4.54-1.69s-2.19,2-2.19,4c0,0,4,60.77-2.89,74.4-1.8,3.557-6.308,5.624-12.58,6.854" transform="translate(-615.22 114.5)" fill="none" stroke="#999" stroke-linejoin="round" stroke-width="2"/>
    <g id="Gruppe_1110" data-name="Gruppe 1110" transform="translate(-134.38 462.26)">
      <path id="Pfad_1633" data-name="Pfad 1633" d="M839.483,251.2c-10.384-7.417-21.775-12.816-24.215-19.47-4.747-12.945-.885-17.007-3.348-23.889s-6.167-8.429-6.167-8.429c-2-20.459-11.4-18.718-11.4-18.718l-3.869,14.626c-3.348-13.31-11.36-13.815-11.36-13.815v17.163c-5.609,1.071-11.278,10.646-11.963,13.391-1.027,4.159-5.431,4.293-6.941,8.184s6.428,15.46,9.091,16.315,12.99-.35,15.5.543c1.4.5-.549,7.047-2.45,14.085" transform="translate(-481.895 -338.76)" fill="none" stroke="#999" stroke-miterlimit="10" stroke-width="2.5"/>
      <path id="Pfad_1634" data-name="Pfad 1634" d="M765.682,242.53A37.109,37.109,0,0,0,752,247.678" transform="translate(-479.84 -354.601)" fill="none" stroke="#999" stroke-linecap="round" stroke-width="2.5"/>
      <path id="Pfad_1635" data-name="Pfad 1635" d="M769.4,245.38a26.993,26.993,0,0,0-9.456,11.07" transform="translate(-481.873 -355.33)" fill="none" stroke="#999" stroke-linecap="round" stroke-width="2.5"/>
      <path id="Pfad_1636" data-name="Pfad 1636" d="M775.066,247.44a45.048,45.048,0,0,0-1.116,13.131" transform="translate(-485.438 -355.858)" fill="none" stroke="#999" stroke-linecap="round" stroke-width="2.5"/>
    </g>
    <g id="Gruppe_1111" data-name="Gruppe 1111" transform="translate(-1 -202)">
      <path id="Pfad_1622" data-name="Pfad 1622" d="M1011.75,197.393a24.713,24.713,0,0,1,.48-6.273c1.89-6.77,6.25-12.74,6.3-14.27.36-11.18-9.11-32.55-9.95-58.59" transform="translate(-714.22 378.5)" fill="none" stroke="#999" stroke-linecap="round" stroke-linejoin="round" stroke-width="2.5"/>
      <path id="Pfad_1623" data-name="Pfad 1623" d="M1012.57,104.44c2.44,9.92-5.87,16-14.07,23.09-6.86,5.91-8.11,6.92-10.89,10.87s-1.28,7.67-6.81,11.08-14.65-.38-17.31-8.06,4-23.57,4-23.57,4.92-8.17.93-19.31c-1.87-5.23,2.36-13.77,6.72-20.6v-.32c-2-4.82-9.7-6.79-9.83-17.2l16.37,10L984,69.1,980,52s12.56,5.81,13.35,15.56c23.135-5.462,46.139,11.609,64.709,32.964" transform="translate(-714.22 378.5)" fill="none" stroke="#999" stroke-linecap="round" stroke-linejoin="round" stroke-width="2.5"/>
    </g>
  </g>
</svg>
