<svg width="101" height="22" viewBox="0 0 101 22" xmlns="http://www.w3.org/2000/svg"><title>54D7EA20-0027-420C-BFB3-83191F9036F4</title><g fill="none" fill-rule="evenodd"><path d="M12.674 0h.047l.015.001h.015l.016.001.015.001.016.001h.015l.015.002.016.001.015.001.015.002.015.001.016.002.015.001.015.002.015.002.015.002.016.002.015.002.015.002.015.003.015.002.015.003.015.002.015.003.015.003.014.003.015.003.015.003.015.003.015.004.015.003.014.004.015.003.015.004.014.004.015.004.015.004.014.004.015.004.014.005.015.004.014.005.015.004.014.005.015.005.014.005.014.005.015.005.014.005.014.005.014.006.014.005.015.006.014.006.014.006.014.005.014.006.014.007.014.006.014.006.014.006.013.007.014.007.014.006.014.007.014.007.013.007.014.007.013.007.014.007.014.008.013.007.014.008.013.007.013.008.014.008.013.008.013.008.014.008.013.008.013.009.013.008.013.008.013.01.013.008.013.009.013.008.013.01.013.009.013.009.013.009.012.01.013.009.013.01.012.009.013.01.012.01.013.01.012.01.013.01.012.01.012.01.013.01.012.011.012.01.012.011.012.011.012.011.012.011.012.011.012.011.012.011.012.012.012.011.011.012.012.011.012.012.011.012.012.012.011.012.012.012.011.012.012.012.01.013.012.012.011.013.012.012.01.013.012.013.01.013.012.013.01.013.011.013.011.013.011.014.01.013.011.014.011.013.01.014.011.014.01.014.01.014.011.014.01.014.01.015.01.014.011.014.01.015.01.015.01.014.01.015.01.015.01.015.01.015.009.015.01.016.01.015.009.016.01.015.009.016.009.016.01.015.008.016 7.017 12.182-14.413 8.342L.404 9.7l-.009-.016-.009-.016-.009-.016-.008-.016-.01-.016-.008-.016-.008-.016-.009-.016-.008-.016-.008-.016-.008-.016-.008-.016-.008-.016-.008-.016L.28 9.46.27 9.445l-.007-.016-.008-.017-.007-.015-.007-.017-.007-.016-.007-.016-.007-.016-.007-.016L.208 9.3.2 9.284l-.006-.016-.006-.016-.007-.016-.006-.016-.006-.016-.006-.016-.005-.016-.006-.016-.006-.016-.005-.016-.005-.016-.006-.016-.005-.016-.005-.016-.005-.016-.005-.016-.004-.016-.005-.016-.004-.016-.005-.016-.004-.016-.004-.016-.004-.016-.004-.015-.004-.016-.004-.016-.004-.016-.003-.016-.004-.016-.003-.016-.004-.016-.003-.016-.003-.016-.003-.015-.003-.016-.002-.016-.003-.016-.003-.016-.002-.016-.003-.015-.002-.016-.002-.016L.02 8.6l-.002-.015-.002-.016-.002-.016-.001-.015L.01 8.52.01 8.505.008 8.49v-.015l-.002-.016-.001-.016-.001-.015V8.41l-.002-.015v-.031L0 8.349v-.031L0 8.303v-.078l.001-.015v-.015l.002-.016v-.015l.001-.015.001-.016.001-.015.001-.015.002-.015v-.016l.002-.015.002-.015.002-.015.001-.015.002-.015.002-.015.002-.015.002-.016.003-.015.002-.015.002-.015.003-.014.002-.015.003-.015.003-.015.003-.015.003-.015.003-.015.003-.014.004-.015.003-.015.004-.015.003-.014.004-.015.004-.015.004-.014.004-.015.004-.014.004-.015.004-.014.005-.015.004-.014.005-.015.004-.014.005-.014.005-.015.005-.014.005-.014.005-.014.005-.014.006-.015.005-.014.006-.014.005-.014.006-.014.006-.014.006-.014.006-.014.006-.014.006-.014.007-.014.006-.013.007-.014.006-.014.007-.014.007-.013.007-.014.007-.013.007-.014.007-.014.007-.013.007-.013.008-.014.007-.013.008-.014.008-.013.008-.013L.33 7.1l.009-.014.008-.013.008-.013.008-.013.009-.013.008-.013.009-.013.008-.013.009-.013.009-.013.009-.013.009-.012.009-.013.01-.013.009-.012.009-.013.01-.013.01-.012.009-.012.01-.013.01-.012.01-.013.01-.012.01-.012.01-.012.01-.013.01-.012.011-.012.01-.012.012-.012.01-.012.011-.012.011-.012.011-.011.012-.012.01-.012.012-.012.012-.011.011-.012.012-.011.011-.012.012-.011.012-.011.012-.012.012-.011.012-.011.013-.011.012-.012.012-.01.013-.012.013-.01.012-.012.013-.01.013-.011.013-.011.013-.01.013-.012.014-.01.013-.01.013-.011.014-.01.013-.011.014-.01.014-.01.014-.011.014-.01.014-.01.014-.01.014-.01.015-.01.014-.01.015-.01.014-.01.015-.01.015-.01.014-.01.015-.009.015-.01.016-.009.015-.01.015-.009.015-.009.016-.009.016-.01.015-.008L11.236.412l.016-.01.016-.009.016-.009.016-.009.017-.009.016-.008.016-.009.016-.009.016-.008.016-.008.017-.008.016-.009.016-.008.016-.007.016-.008.016-.008.016-.007.017-.008.016-.007.016-.008.016-.007.016-.007.016-.007.017-.006.016-.007.016-.007.016-.006.016-.007.016-.006.016-.006.017-.006.016-.006.016-.006.016-.006.016-.005.016-.006.016-.005.016-.006.016-.005.017-.005.016-.005.016-.005.016-.005.016-.005.016-.004.016-.005.016-.004.016-.004.016-.005.016-.004.016-.004.016-.003.016-.004.016-.004.016-.003.016-.004.016-.003.016-.003.016-.004.016-.003.016-.003.016-.002.016-.003.016-.003.016-.002.015-.003.016-.002.016-.002.016-.002.016-.002.016-.002.015-.002.016-.002.016-.001.016-.002.015-.001.016-.001.016-.002h.016l.015-.002h.016l.016-.001.015-.001h.016L12.596 0h.032L12.643 0h.031zm-.022 1.251h-.03l-.007.001H12.6l-.008.001h-.008l-.007.001h-.008l-.008.001-.008.001h-.008l-.007.002h-.008l-.008.001-.008.001-.008.001-.009.002h-.008l-.008.002-.008.001-.008.001-.008.002-.009.001-.008.002-.008.001-.009.002-.008.001-.009.002-.008.002-.009.002-.008.002-.01.002-.008.002-.008.002-.01.002-.008.002-.009.003-.009.002-.009.002-.008.003-.01.002-.009.003-.009.003-.009.003-.009.002-.009.003-.01.003-.009.003-.009.004-.01.003-.008.003-.01.003-.01.004-.009.003-.01.004-.009.004-.01.003-.01.004-.009.004-.01.004-.01.004-.01.004-.009.004-.01.005-.01.004-.01.005-.01.004-.01.005-.01.004-.01.005-.01.005-.01.005-.01.005-.01.005-.01.005-.01.006-.011.005-.01.006-.01.005-.011.006-.01.005-.011.006-.01.006-.011.006-.012.007-9.893 5.725-.012.007-.01.006-.01.006-.01.006-.009.005-.01.006-.009.006-.01.006-.008.006-.01.006-.009.006-.009.006-.009.006-.008.006-.01.006-.008.006-.008.006-.009.006-.008.006-.009.006-.008.006-.008.007-.008.006-.008.006-.008.006-.008.006-.008.006-.007.006-.008.007-.008.006-.007.006-.007.006-.008.006-.007.006-.007.007-.007.006-.007.006-.007.006-.007.007-.007.006-.006.006-.007.006-.006.007-.007.006-.006.006-.007.006-.006.007-.006.006-.006.006-.006.006-.006.007-.006.006-.006.006-.005.006-.006.007-.006.006-.005.006-.006.006-.005.007-.005.006-.006.006-.005.007-.005.006-.005.006-.005.006-.005.007-.005.006-.005.006-.004.007-.005.006-.005.006-.004.006-.005.007-.004.006-.005.006-.004.006-.004.007-.004.006-.005.006-.004.006-.004.007-.004.006-.004.006-.003.006-.004.007-.004.006-.004.006-.003.007-.004.006-.003.006-.004.006-.003.007-.004.006-.003.006-.003.006-.004.007-.003.006-.003.006-.003.007-.003.006-.003.006-.003.006-.003.007-.003.006-.002.006-.003.007-.003.006-.002.006-.003.007-.003.006-.002.006-.002.007-.003.006-.002.006-.003.007-.002.006-.002.007-.002.006-.002.006-.002.007-.003.006-.002.007-.001.006-.002.007L1.288 8l-.002.007-.002.006-.002.007-.001.006-.002.007-.002.006-.001.007-.002.006-.001.007-.002.007-.001.006-.001.007-.002.006v.007l-.002.007-.001.006-.001.007-.002.007v.007l-.002.007v.006l-.002.007v.007l-.001.007-.001.007v.007l-.002.007v.014l-.001.007v.007l-.001.007v.007l-.001.007v.014l-.001.007V8.347l.001.008v.008l.001.007v.008l.001.008.001.007v.008l.001.008.001.008.001.008.001.008.001.008.001.008.001.008.001.008.002.008v.008l.002.008.002.008.001.009.002.008.001.008.002.008.001.009.002.008.002.009.002.008.002.009.002.008.002.009.002.008.002.01.002.008.003.009.002.008.002.01.003.008.002.009.003.009.003.009.003.009.002.009.003.009.003.009.003.01.003.008.004.01.003.009.003.009.004.01.003.009.004.009.003.01.004.009.004.01.004.009.004.01.004.009.004.01.004.01.004.01.005.009.004.01.004.01.005.01.005.009.004.01.005.01.005.01.005.01.005.01.005.01.006.01.005.01.005.01.006.01.005.01.006.011.006.01.006.01.006.012 6.392 11.098 12.251-7.09-6.392-11.098-.007-.011-.006-.01-.006-.01-.006-.01-.006-.01-.006-.01-.006-.01-.006-.01-.006-.01-.006-.009-.006-.01-.006-.009-.006-.01-.007-.008-.006-.01-.006-.008-.006-.009-.006-.009-.007-.008-.006-.01-.006-.008-.006-.008-.007-.008-.006-.009-.006-.008-.006-.008-.007-.008-.006-.008-.006-.008-.007-.007-.006-.008-.006-.008-.007-.007-.006-.008-.006-.007-.007-.007-.006-.007-.006-.008-.007-.007-.006-.007-.006-.006-.007-.007-.006-.007-.006-.007-.007-.006-.006-.007-.007-.006-.006-.006-.006-.007-.007-.006-.006-.006-.006-.006-.007-.006-.006-.006-.006-.006-.007-.005-.006-.006-.006-.006-.007-.005-.006-.006-.007-.005-.006-.005-.006-.006-.007-.005-.006-.005-.006-.005-.007-.005-.006-.005-.007-.005-.006-.004-.006-.005-.007-.005-.006-.004-.006-.005-.006-.004-.007-.005-.006-.004-.006-.004-.007-.005-.006-.004-.006-.004-.007-.004-.006-.004-.006-.004-.007-.004-.006-.004-.006-.003-.007-.004-.006-.004-.006-.003-.007-.004-.006-.003-.006-.004-.007-.003-.006-.003-.006-.004-.006-.003-.007-.003-.006-.003-.006-.003-.007-.003-.006-.003-.006-.003-.007-.003-.006-.003-.006-.003-.007-.002-.006-.003-.006-.003-.007-.002-.006-.003-.006-.002-.007-.003-.006-.002-.007-.002-.006-.003L13 1.307l-.007-.002-.006-.002-.007-.002-.006-.002-.006-.002-.007-.002-.006-.002-.007-.002-.006-.002-.007-.002-.006-.002-.007-.001-.006-.002-.007-.002-.007-.001-.006-.002-.007-.001-.006-.002-.007-.001-.007-.001-.006-.002-.007-.001-.007-.001-.006-.001-.007-.002h-.007l-.007-.002h-.007l-.006-.002h-.007l-.007-.002h-.007l-.007-.001-.007-.001h-.007l-.007-.001-.007-.001h-.007l-.007-.001h-.014l-.007-.001h-.007l-.008-.001H12.652z" fill="#FFF"/><path d="M24.363 3.944l-2.569 9.609-14.44 8.357 2.568-9.608c.287-1.075 1.38-2.31 2.722-3.086l9.915-5.738c1.379-.798 2.091-.608 1.804.466z" fill="#FFF"/><path d="M24.363 3.944l-2.569 9.609-14.44 8.357 2.568-9.608c.287-1.075 1.38-2.31 2.722-3.086l9.915-5.738c1.379-.798 2.091-.608 1.804.466z"/><path fill="#FFF" d="M29.158 4.298h2.286l3.672 10.115 3.648-10.115h2.17l-4.756 12.245h-2.24zM51.742 5.907c.97 1.118 1.455 2.673 1.455 4.664 0 .308-.008.54-.024.694h-9.652c.17 1.096.627 1.968 1.374 2.616.747.648 1.667.972 2.76.972.723 0 1.397-.131 2.02-.394a4.854 4.854 0 0 0 1.628-1.11l1.178 1.226a6.169 6.169 0 0 1-2.17 1.505c-.848.355-1.787.532-2.818.532-1.2 0-2.267-.258-3.198-.775a5.44 5.44 0 0 1-2.17-2.188c-.517-.941-.774-2.014-.774-3.217 0-1.204.257-2.273.773-3.206a5.64 5.64 0 0 1 2.16-2.2c.923-.531 1.977-.798 3.163-.798 1.893 0 3.325.56 4.295 1.679zm-.485 3.691c-.062-1.11-.431-1.986-1.109-2.627-.677-.64-1.57-.96-2.678-.96-1.078 0-1.975.324-2.69.972-.716.648-1.143 1.52-1.282 2.615h7.759zM62.687 15.732c-.939.602-1.893.903-2.863.903s-1.755-.29-2.356-.868c-.6-.579-.9-1.454-.9-2.627V6.358h-1.732V4.714h1.732V1.428h2.17v3.286h3.741v1.644h-3.74v6.388c0 .68.123 1.166.369 1.459.246.293.616.44 1.108.44.585 0 1.217-.193 1.894-.58l.577 1.667zM74.325 5.907c.97 1.118 1.455 2.673 1.455 4.664 0 .308-.008.54-.023.694h-9.652c.17 1.096.627 1.968 1.374 2.616.746.648 1.666.972 2.76.972.723 0 1.396-.131 2.02-.394a4.854 4.854 0 0 0 1.628-1.11l1.177 1.226a6.169 6.169 0 0 1-2.17 1.505c-.847.355-1.786.532-2.817.532-1.201 0-2.267-.258-3.199-.775a5.44 5.44 0 0 1-2.17-2.188c-.516-.941-.774-2.014-.774-3.217 0-1.204.258-2.273.774-3.206a5.64 5.64 0 0 1 2.159-2.2c.923-.531 1.978-.798 3.163-.798 1.894 0 3.326.56 4.295 1.679zm-.485 3.691c-.061-1.11-.43-1.986-1.108-2.627-.677-.64-1.57-.96-2.679-.96-1.077 0-1.974.324-2.69.972-.716.648-1.143 1.52-1.281 2.615h7.758zM76.265 4.298h2.286l3.672 10.115L85.87 4.298h2.17l-4.756 12.245h-2.24zM97.983 5.015a5.654 5.654 0 0 1 2.217 2.188c.53.933.796 2.002.796 3.206 0 1.203-.265 2.276-.796 3.217a5.632 5.632 0 0 1-2.217 2.199c-.947.525-2.028.787-3.245.787-1.231 0-2.32-.262-3.267-.787a5.654 5.654 0 0 1-2.217-2.187c-.531-.934-.797-2.01-.797-3.23 0-1.203.266-2.272.797-3.205a5.654 5.654 0 0 1 2.217-2.188c.947-.524 2.036-.787 3.267-.787 1.217 0 2.298.263 3.245.787zm-5.38 1.644a3.836 3.836 0 0 0-1.455 1.54c-.347.655-.52 1.4-.52 2.233 0 .848.173 1.605.52 2.268a3.74 3.74 0 0 0 1.454 1.54c.624.362 1.336.543 2.136.543.786 0 1.49-.18 2.113-.544a3.74 3.74 0 0 0 1.455-1.539c.346-.663.52-1.42.52-2.268 0-.834-.174-1.578-.52-2.234a3.836 3.836 0 0 0-1.455-1.54c-.623-.37-1.327-.555-2.113-.555-.8 0-1.512.185-2.136.556z"/></g></svg>