<?xml version="1.0" encoding="UTF-8"?>
<svg width="27px" height="22px" viewBox="0 0 27 22" version="1.1" xmlns="http://www.w3.org/2000/svg" xmlns:xlink="http://www.w3.org/1999/xlink">
    <!-- Generator: Sketch 55.2 (78181) - https://sketchapp.com -->
    <title>Collect Sample - Step 1</title>
    <desc>Created with Sketch.</desc>
    <defs>
        <rect id="path-1" x="0" y="0" width="35" height="35"></rect>
    </defs>
    <g id="Symbols" stroke="none" stroke-width="1" fill="none" fill-rule="evenodd">
        <g id="Collect-Sample/Steps" transform="translate(-34.000000, -57.000000)">
            <g id="Tip">
                <g id="Collect-Sample---Step-1" transform="translate(30.000000, 50.000000)">
                    <mask id="mask-2" fill="white">
                        <use xlink:href="#path-1"></use>
                    </mask>
                    <g id="Rectangle"></g>
                    <path d="M7.47013867,20.7485584 L27.5298613,20.7485584 M10.4448309,15.5613023 L24.8766647,15.5613023 M27.9897945,20.9943503 L27.5298613,20.7567127 L27.7220722,20.2686237 C27.8811038,19.8644068 27.964624,19.4392219 27.964624,19.002388 C27.964624,17.4134778 26.8502586,16.0249287 25.3148597,15.6975945 L24.7805592,15.5822704 L24.8766647,15.0394315 C24.9270056,14.7505388 24.9556084,14.4523269 24.9647613,14.1599394 L24.9693378,13.9852059 L24.9647613,13.8710467 C24.9224292,12.2774768 24.2885909,10.7992312 23.1788019,9.70306949 C22.0644364,8.60807269 20.5965402,8 19.0394032,8 C18.8060043,8 18.6137934,8.19104199 18.6137934,8.42402004 C18.6137934,8.65816297 18.8060043,8.84920496 19.0394032,8.84920496 C19.5199304,8.84920496 19.9077845,9.24526763 19.9077845,9.72869707 C19.9077845,10.2132914 19.5199304,10.6128487 19.0394032,10.6128487 L13.4744405,10.6128487 C11.6301313,10.6128487 10.1313441,12.1295358 10.1313441,13.9898655 C10.1313441,14.31254 10.1771086,14.6352146 10.2652053,14.9415808 L10.4448309,15.5613023 L9.81900142,15.6673074 C8.20465883,15.9398917 7.03194362,17.3412546 7.03194362,18.9988934 C7.03194362,19.4322325 7.11203149,19.8562525 7.27335133,20.2639641 L7.47013867,20.7485584 L7.00677315,20.9861961 C5.76769942,21.623391 5,22.8896267 5,24.2921545 C5,26.334207 6.6429454,28 8.66802435,28 L26.3331198,28 C28.3570546,28 30,26.3388666 30,24.2921545 C30,22.8977809 29.2288682,21.6315452 27.9897945,20.9943503" id="Stroke-1" stroke="#6D6D6D" mask="url(#mask-2)"></path>
                </g>
            </g>
        </g>
    </g>
</svg>