<?xml version="1.0" encoding="UTF-8"?>
<svg width="25px" height="25px" viewBox="0 0 25 25" version="1.1" xmlns="http://www.w3.org/2000/svg" xmlns:xlink="http://www.w3.org/1999/xlink">
    <!-- Generator: Sketch 55.2 (78181) - https://sketchapp.com -->
    <title>Collect Sample - Step 2</title>
    <desc>Created with Sketch.</desc>
    <defs>
        <rect id="path-1" x="0" y="0" width="35" height="35"></rect>
    </defs>
    <g id="Symbols" stroke="none" stroke-width="1" fill="none" fill-rule="evenodd">
        <g id="Collect-Sample/Steps" transform="translate(-35.000000, -145.000000)">
            <g id="Tip">
                <g id="Collect-Sample---Step-2" transform="translate(30.000000, 140.000000)">
                    <mask id="mask-2" fill="white">
                        <use xlink:href="#path-1"></use>
                    </mask>
                    <g id="Rectangle"></g>
                    <path d="M28.7111375,19.4005865 L25.2048259,20.2845916 L20.0876509,17.5 L25.2048259,14.7154084 L28.7111375,15.5994135 L29.3780737,13.2558241 L26.6205758,12.5597124 L27.359456,9.9614859 L24.8205304,9.32009986 L23.8785614,12.6235847 L18.8168605,15.3779892 L18.8168605,9.81303181 L21.3574362,7.41935484 L19.5187339,5.68696819 L17.5,7.58897671 L15.4812661,5.68696819 L13.6425638,7.41935484 L16.1831395,9.81303181 L16.1831395,15.3775973 L11.1171636,12.6235534 L10.1789768,9.32022434 L7.64054401,9.9614859 L8.37942416,12.5597124 L5.62192631,13.2558241 L6.28886249,15.5994135 L9.79517408,14.7154084 L14.9123491,17.5 L9.79517408,20.2845916 L6.28886249,19.4005865 L5.62192631,21.7441759 L8.37942416,22.4402876 L7.64054401,25.0385141 L10.1789768,25.6797757 L11.1171636,22.3764466 L16.1831395,19.6224027 L16.1831395,25.1869682 L13.6425638,27.5806452 L15.4812661,29.3130318 L17.5,27.4110233 L19.5187339,29.3130318 L21.3574362,27.5806452 L18.8168605,25.1869682 L18.8168605,19.6220108 L23.8785614,22.3764153 L24.8205304,25.6799001 L27.359456,25.0385141 L26.6205758,22.4402876 L29.3780737,21.7441759 L28.7111375,19.4005865 Z" id="Path" stroke="#6D6D6D" fill-rule="nonzero" mask="url(#mask-2)"></path>
                </g>
            </g>
        </g>
    </g>
</svg>