<?xml version="1.0" encoding="UTF-8"?>
<svg width="27px" height="22px" viewBox="0 0 27 22" version="1.1" xmlns="http://www.w3.org/2000/svg" xmlns:xlink="http://www.w3.org/1999/xlink">
    <!-- Generator: Sketch 55.2 (78181) - https://sketchapp.com -->
    <title>Collect Sample - Step 3</title>
    <desc>Created with Sketch.</desc>
    <defs>
        <rect id="path-1" x="0" y="0" width="35" height="35"></rect>
    </defs>
    <g id="Symbols" stroke="none" stroke-width="1" fill="none" fill-rule="evenodd">
        <g id="Collect-Sample/Steps" transform="translate(-34.000000, -233.000000)">
            <g id="Tip">
                <g id="Collect-Sample---Step-3" transform="translate(30.000000, 227.000000)">
                    <mask id="mask-2" fill="white">
                        <use xlink:href="#path-1"></use>
                    </mask>
                    <g id="Rectangle"></g>
                    <g id="Group-12" mask="url(#mask-2)">
                        <g transform="translate(5.000000, 7.000000)">
                            <path d="M11.1241663,11.2974213 C13.4770772,11.2975359 15.39089,9.37730666 15.3966106,7.01060179 C15.4023056,4.64733531 13.4931161,2.72785107 11.1309585,2.72210739 C8.76845852,2.71633245 6.84728273,4.64131812 6.85121504,7.01025795 C6.85510236,9.37392557 8.77211149,11.2973067 11.1241663,11.2974213 Z M18.1961412,7.21472786 C18.2846686,7.00699147 18.3872371,6.80401153 18.4590978,6.59060179 C18.6699425,5.96412614 18.7569288,5.31237829 18.8230818,4.65747858 C18.9293604,3.60510035 18.9496229,2.54968488 18.9308444,1.49295136 C18.9304448,1.46790838 18.9336412,1.44275078 18.9355818,1.41077371 L24.9473969,1.41077371 C24.9473969,1.62848144 24.9560156,1.84349577 24.9459699,2.0576505 C24.8663467,3.75931239 24.5360384,5.41088832 23.9436298,7.00767915 C23.1824425,9.05948431 22.068059,10.8863611 20.4895202,12.4109456 C18.9494517,13.8983955 17.1394631,14.898682 15.0597827,15.3967909 C13.785011,15.7021204 12.4900909,15.8173067 11.1836983,15.7100287 C8.61566172,15.4991405 6.31680327,14.6063038 4.35367542,12.9084241 C3.00053615,11.7380516 2.0124083,10.2981663 1.31160921,8.65455594 C0.760753045,7.36263617 0.418058981,6.01404018 0.218344369,4.6255015 C0.0726251913,3.61260752 0.0104105794,2.59444133 -1.77635684e-13,1.57214906 C-1.77635684e-13,1.53002872 -1.77635684e-13,1.48785107 -1.77635684e-13,1.42515766 L3.10658638,1.42515766 C3.10658638,1.46779376 3.10778501,1.51828087 3.10641515,1.56865336 C3.06805898,2.98601726 3.1042462,4.39902586 3.37736263,5.79581669 C3.47302473,6.28487113 3.60715715,6.76309462 3.85938318,7.19902586 C3.88706583,7.24681955 3.91754528,7.29300866 3.96412063,7.36785107 C3.9690293,7.31495709 3.97479414,7.29272213 3.97256811,7.27123216 C3.87348136,6.29959892 4.03518227,5.36234964 4.37953158,4.45919778 C5.28678044,2.07971353 6.99534209,0.644183449 9.48620967,0.162005798 C10.5711983,-0.0480801615 11.6613809,-0.0655586715 12.7469403,0.178911243 C14.1373512,0.491977145 15.3187439,1.1767909 16.2918033,2.21690551 C17.218801,3.20785107 17.8334699,4.36595995 18.0811298,5.70997141 C18.1717119,6.20143273 18.2008215,6.69696282 18.1477964,7.19610322 C18.1638923,7.20229233 18.1800453,7.20848144 18.1961412,7.21472786 Z" id="Stroke-1" stroke="#6D6D6D" stroke-width="1" fill="none"></path>
                            <path d="M11.1032074,17.3933697 C11.0232416,17.507639 10.9568033,17.6021949 10.8906503,17.6970373 C10.1647941,18.7382981 9.43813889,19.7789857 8.71496537,20.8221949 C8.6623398,20.8981261 8.60891515,20.9280402 8.516164,20.9276993 C7.63305898,20.9240287 6.74989688,20.9255187 5.86673478,20.9255187 L5.73163204,20.9255187 C5.76273935,20.8747451 5.78220282,20.8389284 5.80537633,20.8057479 C6.57803615,19.6971519 7.35143798,18.5890144 8.12312747,17.4796734 C8.16525076,17.4191004 8.20583295,17.3814499 8.28751104,17.3816781 C9.1921914,17.3846018 10.0968718,17.3834557 11.0016092,17.3838568 C11.0269517,17.3838568 11.0522371,17.3884413 11.1032074,17.3933697 Z" id="Stroke-3" stroke="none" fill="#6D6D6D" fill-rule="evenodd"></path>
                            <path d="M7.17352131,17.3933697 C7.09355556,17.507639 7.0271172,17.6021949 6.96096423,17.6970373 C6.23510807,18.7382981 5.50845282,19.7789857 4.7852793,20.8221949 C4.73259665,20.8981261 4.67922907,20.9280402 4.58647793,20.9276993 C3.70337291,20.9240287 2.82015373,20.9255187 1.93704871,20.9255187 L1.80194597,20.9255187 C1.83305327,20.8747451 1.85251674,20.8389284 1.87563318,20.8057479 C2.64835008,19.6971519 3.4217519,18.5890144 4.1934414,17.4796734 C4.23556469,17.4191004 4.27614688,17.3814499 4.35782496,17.3816781 C5.26250533,17.3846018 6.16718569,17.3834557 7.07192314,17.3838568 C7.0972656,17.3838568 7.12255099,17.3884413 7.17352131,17.3933697 Z" id="Stroke-5" stroke="none" fill="#6D6D6D" fill-rule="evenodd"></path>
                            <path d="M12.4637325,17.3834098 L12.6198969,17.3834098 C13.4902165,17.3834098 14.3605362,17.3853582 15.2307987,17.380939 C15.3388467,17.3803726 15.400148,17.4171061 15.4608215,17.5046706 C16.2234357,18.6047279 16.9902165,19.7018625 17.7556846,20.7998568 C17.7796001,20.8341834 17.8010613,20.8702866 17.8331389,20.9202579 C17.7855362,20.9224929 17.7532302,20.9253009 17.7209814,20.9253582 C16.8248626,20.9255875 15.9286868,20.9250144 15.032511,20.9265052 C14.964132,20.926619 14.9151024,20.9153296 14.8708672,20.8517766 C14.0878763,19.7238683 13.3017462,18.598023 12.5165293,17.4716047 C12.5024882,17.4513754 12.4910727,17.4293124 12.4637325,17.3834098 Z" id="Stroke-7" stroke="none" fill="#6D6D6D" fill-rule="evenodd"></path>
                            <path d="M16.4678364,17.3834098 L16.6239437,17.3834098 C17.4942633,17.3834098 18.364583,17.3853582 19.2349026,17.380939 C19.3428935,17.3803726 19.4041948,17.4171061 19.4649254,17.5046706 C20.2275396,18.6047279 20.9943204,19.7018625 21.7597884,20.7998568 C21.783761,20.8341834 21.8051651,20.8702866 21.8371857,20.9202579 C21.789583,20.9224929 21.7573341,20.9253009 21.7250282,20.9253582 C20.8289094,20.9255875 19.9327336,20.9250144 19.0366149,20.9265052 C18.9682359,20.926619 18.9191492,20.9153296 18.8750282,20.8517766 C18.0919231,19.7238683 17.3058501,18.598023 16.5206332,17.4716047 C16.5065921,17.4513754 16.4951766,17.4293124 16.4678364,17.3834098 Z" id="Stroke-9" stroke="none" fill="#6D6D6D" fill-rule="evenodd"></path>
                            <path d="M11.1241663,11.2974213 C8.77211149,11.2973067 6.85510236,9.37392557 6.85121504,7.01025795 C6.84728273,4.64131812 8.76845852,2.71633245 11.1309585,2.72210739 C13.4931161,2.72785107 15.4023056,4.64733531 15.3966106,7.01060179 C15.39089,9.37730666 13.4770772,11.2975359 11.1241663,11.2974213 Z" id="Stroke-11" stroke="#6D6D6D" stroke-width="1" fill="none"></path>
                        </g>
                    </g>
                </g>
            </g>
        </g>
    </g>
</svg>