<?xml version="1.0" encoding="UTF-8"?>
<svg width="130px" height="130px" viewBox="0 0 130 130" version="1.1" xmlns="http://www.w3.org/2000/svg" xmlns:xlink="http://www.w3.org/1999/xlink">
    <!-- Generator: Sketch 55.2 (78181) - https://sketchapp.com -->
    <title>Group 2</title>
    <desc>Created with Sketch.</desc>
    <g id="Symbols" stroke="none" stroke-width="1" fill="none" fill-rule="evenodd">
        <g id="Arrived-to-lab/Input-Info" transform="translate(-30.000000, -43.000000)">
            <g id="Group-2" transform="translate(30.000000, 43.000000)">
                <path d="M65,130 C100.898509,130 130,100.898509 130,65 C130,29.1014913 100.898509,0 65,0 C29.1014913,0 0,29.1014913 0,65 C0,100.898509 29.1014913,130 65,130 Z" id="Oval" fill-opacity="0.1" fill="#49B2AE"></path>
                <g id="Group-2-Copy" transform="translate(31.984366, 15.993556)" stroke="#009AA1" stroke-width="2.30088496">
                    <path d="M64.6013245,83.3777822 L64.6013245,16.0768972 C64.6013245,11.8846733 61.1554724,8.48905232 56.9082594,8.48905232 L48.3497246,8.48905232 L48.3497246,15.2561547 C48.3497246,15.7550374 47.9810986,16.1573621 47.5323364,16.1573621 L17.4412331,16.1573621 C16.992471,16.1573621 16.623845,15.7550374 16.623845,15.2561547 L16.623845,8.48905232 L8.06531011,8.48905232 C3.81809713,8.48905232 0.372245082,11.8846733 0.372245082,16.0768972 L0.372245082,83.3777822 C0.372245082,87.5700061 3.81809713,90.965627 8.06531011,90.965627 L56.9002458,90.965627 C61.1554724,90.965627 64.6013245,87.5700061 64.6013245,83.3777822 Z" id="Path" stroke-linejoin="round"></path>
                    <path d="M57.2848991,81.13281 L57.2848991,15.1032713 L48.341711,15.1032713 L48.341711,15.2642012 C48.341711,15.7630839 47.9730849,16.1654086 47.5243228,16.1654086 L17.4492467,16.1654086 C17.0004846,16.1654086 16.6318586,15.7630839 16.6318586,15.2642012 L16.6318586,15.1032713 L7.68867047,15.1032713 L7.68867047,81.13281 C7.68867047,84.3514081 10.8941142,84.3514081 10.8941142,84.3514081 L54.0714417,84.3514081 C57.2848991,84.3514081 57.2848991,81.13281 57.2848991,81.13281 Z" id="Path" stroke-linejoin="round"></path>
                    <path d="M51.9798896,51.2159413 L48.7984867,51.2481272 L44.2307294,39.9347551 L33.7809827,66.2950731 L24.6214271,28.6777085 L17.6095189,51.4090571 L13.0016935,51.4090571 M32.4907916,12.3433235 C31.0884099,12.3433235 29.9424638,11.2248607 29.9424638,9.85695649 C29.9424638,8.48905232 31.0803963,7.3705895 32.4907916,7.3705895 C33.8931732,7.3705895 35.0391194,8.48905232 35.0391194,9.85695649 C35.0391194,11.2329071 33.8931732,12.3433235 32.4907916,12.3433235" id="Shape" stroke-linecap="round"></path>
                    <path d="M47.5082956,6.58203299 L39.8152306,6.58203299 L39.6950264,6.21994071 C38.6131892,3.04157515 35.7202762,0.90120745 32.4907916,0.90120745 C29.2693206,0.90120745 26.3764076,3.04157515 25.2865567,6.21994071 L25.1663526,6.58203299 L17.4732876,6.58203299 C17.0245254,6.58203299 16.6558994,6.98435774 16.6558994,7.47519394 L16.6558994,15.1435038 C16.6558994,15.63434 17.0245254,16.0366647 17.4732876,16.0366647 L47.500282,16.0366647 C47.9490441,16.0366647 48.3177984,15.63434 48.3177984,15.1435038 L48.3177984,7.47519394 C48.3256838,6.98435774 47.9570577,6.58203299 47.5082956,6.58203299" id="Path"></path>
                </g>
            </g>
        </g>
    </g>
</svg>