<svg xmlns="http://www.w3.org/2000/svg" width="42" height="42" viewBox="0 0 42 42">
  <g id="Gruppe_468" data-name="Gruppe 468" transform="translate(2087 -5373)">
    <rect id="Rechteck_393" data-name="Rechteck 393" width="42" height="42" transform="translate(-2087 5373)" fill="none"/>
    <g id="Gruppe_441" data-name="Gruppe 441" transform="translate(-2327 5130)">
      <path id="Path" d="M34.364,8.182H30.436a4.624,4.624,0,0,0,.655-2.455A5.8,5.8,0,0,0,25.364,0C21.6,0,19.309,2.619,18,5.072,16.691,2.619,14.4,0,10.636,0A5.8,5.8,0,0,0,4.909,5.728a4.616,4.616,0,0,0,.655,2.455H1.636A1.545,1.545,0,0,0,0,9.818V18a1.547,1.547,0,0,0,1.636,1.637H3.273V34.363A1.545,1.545,0,0,0,4.909,36H31.091a1.546,1.546,0,0,0,1.636-1.637V19.637h1.637A1.547,1.547,0,0,0,36,18V9.818a1.545,1.545,0,0,0-1.636-1.635Z" transform="translate(243 246)" fill="none"/>
      <path id="Exclusion_143" data-name="Exclusion 143" d="M28.282,31.819H17.675V17.678H28.282V31.819Zm-14.142,0H3.534V17.678H14.14V31.819ZM31.817,14.141H17.675v-5.3H31.817v5.3Zm-17.677,0H0v-5.3H14.14v5.3ZM23.863,5.3H18.206C19.215,2.883,21.016,0,23.863,0a2.722,2.722,0,0,1,2.652,2.652A2.722,2.722,0,0,1,23.863,5.3Zm-10.254,0H7.953A2.721,2.721,0,0,1,5.3,2.652,2.721,2.721,0,0,1,7.953,0C10.8,0,12.6,2.883,13.608,5.3Z" transform="translate(245.092 248.091)" fill="#49b2ae" stroke="#49b2ae" stroke-miterlimit="10" stroke-width="1"/>
    </g>
  </g>
</svg>
