<svg xmlns="http://www.w3.org/2000/svg" width="42" height="42" viewBox="0 0 42 42">
  <g id="Gruppe_460" data-name="Gruppe 460" transform="translate(2087 -5568)">
    <rect id="Rechteck_414" data-name="Rechteck 414" width="42" height="42" transform="translate(-2087 5568)" fill="none"/>
    <g id="Gruppe_447" data-name="Gruppe 447" transform="translate(-2 1.327)">
      <g id="paw" transform="translate(-2076 5579.181)">
        <path id="Path" d="M2.722,8.272C1.195,8.272,0,6.456,0,4.136S1.195,0,2.722,0,5.444,1.816,5.444,4.136,4.249,8.272,2.722,8.272Z" transform="translate(0 5.464)" fill="#49b2ae"/>
        <path id="Path-2" data-name="Path" d="M2.719,8.242C1.195,8.242,0,6.432,0,4.121S1.195,0,2.719,0,5.438,1.81,5.438,4.121,4.243,8.242,2.719,8.242Z" transform="translate(5.444 0)" fill="#49b2ae"/>
        <path id="Path-3" data-name="Path" d="M2.722,8.242C1.195,8.242,0,6.432,0,4.121S1.195,0,2.722,0,5.444,1.81,5.444,4.121,4.249,8.242,2.722,8.242Z" transform="translate(12.248 0)" fill="#49b2ae"/>
        <path id="Path-4" data-name="Path" d="M2.722,8.272C1.195,8.272,0,6.456,0,4.136S1.195,0,2.722,0,5.444,1.816,5.444,4.136,4.249,8.272,2.722,8.272Z" transform="translate(17.692 5.464)" fill="#49b2ae"/>
        <path id="Path-5" data-name="Path" d="M12.132,12.363a5.527,5.527,0,0,1-2.684-.76,4.238,4.238,0,0,0-2.079-.614,4.235,4.235,0,0,0-2.075.614,5.553,5.553,0,0,1-2.688.76A2.381,2.381,0,0,1,.65,11.221c-.853-1.272-.867-3.2-.038-5.3C2.1,2.159,4.567,0,7.367,0s5.264,2.159,6.756,5.926c.829,2.093.815,4.023-.038,5.3a2.38,2.38,0,0,1-1.956,1.142Z" transform="translate(4.199 9.616)" fill="#49b2ae"/>
      </g>
      <path id="Path-6" data-name="Path" d="M1.361,0C.719,0,0,1.072,0,2.508s.719,1,1.361,1,1.361.435,1.361-1S2,0,1.361,0Z" transform="matrix(0.996, 0.087, -0.087, 0.996, -2074.479, 5580.123)" fill="#49b2ae"/>
      <path id="Path-7" data-name="Path" d="M1.529-.522C.887-.522,0,1.072,0,2.508s.719,1,1.361,1,1.361.435,1.361-1S2.172-.522,1.529-.522Z" transform="matrix(0.985, 0.174, -0.174, 0.985, -2068.524, 5574.242)" fill="#49b2ae"/>
      <path id="Path-8" data-name="Path" d="M1.113-.5C.47-.5,0,1.072,0,2.508s.719,1,1.361,1,1.361.435,1.361-1S1.755-.5,1.113-.5Z" transform="matrix(0.966, -0.259, 0.259, 0.966, -2063.487, 5574.863)" fill="#49b2ae"/>
      <path id="Path-9" data-name="Path" d="M1.361,0C.719,0,0,1.072,0,2.508s.719,1,1.361,1,1.361.435,1.361-1S2,0,1.361,0Z" transform="translate(-2057.495 5580.414) rotate(-7)" fill="#49b2ae"/>
    </g>
  </g>
</svg>
