<?xml version="1.0" encoding="UTF-8"?>
<svg width="25px" height="25px" viewBox="0 0 25 25" version="1.1" xmlns="http://www.w3.org/2000/svg" xmlns:xlink="http://www.w3.org/1999/xlink">
    <!-- Generator: Sketch 54.1 (76490) - https://sketchapp.com -->
    <title>Home</title>
    <desc>Created with Sketch.</desc>
    <defs>
        <polygon id="path-1" points="0 0 25 0 25 25 0 25"></polygon>
    </defs>
    <g id="Home" stroke="none" stroke-width="1" fill="none" fill-rule="evenodd">
        <g>
            <mask id="mask-2" fill="white">
                <use xlink:href="#path-1"></use>
            </mask>
            <g id="Rectangle-9-Copy-14"></g>
            <path d="M22.7459075,10.689044 L13.1010676,1.24529085 C12.9419203,1.08829598 12.7253652,1 12.4994662,1 C12.2735672,1 12.0570121,1.08829598 11.8978648,1.24529085 L2.25409253,10.689044 C2.09231684,10.8444338 2.00081005,11.0567843 2,11.2786905 L2,23.1698948 C2,23.6283493 2.37952232,24 2.84768683,24 L22.1523132,24 C22.6204777,24 23,23.6283493 23,23.1698948 L23,11.2786905 C22.99919,11.0567843 22.9076832,10.8444338 22.7459075,10.689044 Z" id="Path_59-path" stroke="#6D6D6D" fill-rule="nonzero" mask="url(#mask-2)"></path>
            <path d="M12.8431433,12.5434767 L12.5,12.8672559 L12.1568567,12.5434767 C10.8929464,11.350891 9.20423693,11.1370003 8.27379492,12.1440441 C7.22126652,13.2832256 7.24552474,15.0872573 8.32927345,16.1969154 L12.3757407,20.3706258 L12.45182,20.472249 C12.4619096,20.4900629 12.4765532,20.4992431 12.4902515,20.499953 C12.5033055,20.5006294 12.5175026,20.4936325 12.5780265,20.4183123 L16.6720057,16.1956008 C17.7544753,15.0872573 17.7787335,13.2832256 16.7262051,12.1440441 C15.7957631,11.1370003 14.1070536,11.350891 12.8431433,12.5434767 Z" id="bx-heart_1_-path" stroke="#6D6D6D" fill-rule="nonzero" mask="url(#mask-2)"></path>
        </g>
    </g>
</svg>