<?xml version="1.0" encoding="UTF-8"?>
<svg width="25px" height="25px" viewBox="0 0 25 25" version="1.1" xmlns="http://www.w3.org/2000/svg" xmlns:xlink="http://www.w3.org/1999/xlink">
    <!-- Generator: Sketch 54.1 (76490) - https://sketchapp.com -->
    <title>Account</title>
    <desc>Created with Sketch.</desc>
    <defs>
        <polygon id="path-1" points="0 0 25 0 25 25 0 25"></polygon>
    </defs>
    <g id="Account" stroke="none" stroke-width="1" fill="none" fill-rule="evenodd">
        <g>
            <mask id="mask-2" fill="white">
                <use xlink:href="#path-1"></use>
            </mask>
            <g id="Rectangle-9-Copy-14"></g>
            <path d="M12.4497112,13.6 C15.5136109,13.5963053 17.9964614,11.1133586 18,8.05 C18,4.98481964 15.5151804,2.5 12.45,2.5 C9.38481964,2.5 6.9,4.98481964 6.9,8.05 C6.9,11.1150841 9.38466358,13.5998439 12.4497112,13.6 Z M12.4497112,13.6 C12.4498075,13.6 12.4499037,13.6 12.45,13.6 L12.4494225,13.6000003 C12.4495187,13.6000002 12.449615,13.6000001 12.4497112,13.6 Z" id="Shape-path" stroke="#49B2AE" fill-rule="nonzero" mask="url(#mask-2)"></path>
            <path d="M21.2488355,23.5 C21.8841877,23.4995415 22.3992313,22.9847661 22.4007895,22.3780863 C22.3322841,21.1604595 21.8982903,19.9917669 21.1554566,19.0245543 C20.3849629,18.021337 19.3684371,17.23411 18.2113541,16.7420472 C16.3886872,15.9994907 14.4313845,15.6445445 12.4360261,15.6998047 C10.4686567,15.6447997 8.51136372,15.9997441 6.69538667,16.7392435 C5.53083117,17.233631 4.51397115,18.0208671 3.74366997,19.0243894 C3.00128986,19.9918339 2.56762325,21.1605123 2.49999963,22.349395 C2.50076811,22.9845382 3.01546177,23.4992319 3.65,23.5 L21.2488355,23.5 Z" id="Shape-2-path" stroke="#49B2AE" fill-rule="nonzero" mask="url(#mask-2)"></path>
        </g>
    </g>
</svg>