<?xml version="1.0" encoding="UTF-8"?>
<svg width="25px" height="25px" viewBox="0 0 25 25" version="1.1" xmlns="http://www.w3.org/2000/svg" xmlns:xlink="http://www.w3.org/1999/xlink">
    <!-- Generator: Sketch 54.1 (76490) - https://sketchapp.com -->
    <title>Idea Blog</title>
    <desc>Created with Sketch.</desc>
    <defs>
        <polygon id="path-1" points="0 0 25 0 25 25 0 25"></polygon>
    </defs>
    <g id="Idea-Blog" stroke="none" stroke-width="1" fill="none" fill-rule="evenodd">
        <g id="Ideas">
            <mask id="mask-2" fill="white">
                <use xlink:href="#path-1"></use>
            </mask>
            <g id="Rectangle-9-Copy-14"></g>
            <g id="Group" mask="url(#mask-2)" fill-rule="nonzero">
                <g transform="translate(4.000000, 1.638889)">
                    <path d="M7.52955471,0.412812017 C7.85127866,0.378663101 8.1747226,0.361403851 8.49842726,0.361112137 C12.2167939,0.359334687 15.5044207,2.66687705 16.6129831,6.05661303 C17.7215456,9.446349 16.3934878,13.1307305 13.3350567,15.1504431 C12.4826492,15.7243105 11.9796763,16.6613763 11.9894618,17.6573597 C11.9888534,18.0457899 11.6593,18.3605301 11.2525883,18.3611111 L5.74868521,18.3611111 C5.55130848,18.3600008 5.36254539,18.2837588 5.22422634,18.1492804 C5.08590729,18.0148021 5.0094551,17.8331931 5.01181179,17.6446985 C5.00071988,16.6310296 4.47670636,15.6851494 3.60545517,15.1061289 C1.10252067,13.4372145 -0.260597951,10.6067257 0.0415066644,7.70566037 C0.420489996,3.88979464 3.54331799,0.848813067 7.52955471,0.412812017 Z" id="Path_29-path" stroke="#49B2AE" stroke-width="1" fill="none"></path>
                    <path d="M5.56489185,21 L11.4351082,21 C11.7470893,21 12,20.7761424 12,20.5 C12,20.2238576 11.7470893,20 11.4351082,20 L5.56489185,20 C5.25291069,20 5,20.2238576 5,20.5 C5,20.7761424 5.25291069,21 5.56489185,21 L5.56489185,21 Z" id="Path_31" stroke="none" fill="#49B2AE"></path>
                    <path d="M11,22.5 C11,22.2238576 10.6809083,22 10.2872888,22 L6.71271124,22 C6.31909169,22 6,22.2238576 6,22.5 C6,22.7761424 6.31909169,23 6.71271124,23 L10.2872888,23 C10.4763115,23 10.6575924,22.9473216 10.7912517,22.8535534 C10.924911,22.7597852 11,22.6326082 11,22.5 L11,22.5 Z" id="Path_32" stroke="none" fill="#49B2AE"></path>
                    <path d="M8.5301561,12.8761194 L8.53727354,12.8854221 C8.53531389,12.8820391 8.53291749,12.8789195 8.53015852,12.8761226 Z M8.49524489,12.8304896 C8.49743076,12.8279255 8.49984483,12.8251489 8.50250264,12.8221424 L11.8523697,9.44372428 C12.6990462,8.59607466 12.7179787,7.21939223 11.8948592,6.34830395 C11.1719491,5.58326505 9.84093699,5.74810377 8.83904544,6.67244907 L8.5,6.98525244 L8.16095456,6.67244907 C7.15906301,5.74810377 5.82805093,5.58326505 5.10514085,6.34830395 C4.28202126,7.21939223 4.30095378,8.59607466 5.1489246,9.44502486 L8.45967056,12.7839932 L8.49524489,12.8304896 Z" id="bx-heart_1_-path" stroke="#49B2AE" stroke-width="1" fill="none"></path>
                </g>
            </g>
        </g>
    </g>
</svg>