<?xml version="1.0" encoding="UTF-8"?>
<svg width="25px" height="25px" viewBox="0 0 25 25" version="1.1" xmlns="http://www.w3.org/2000/svg" xmlns:xlink="http://www.w3.org/1999/xlink">
    <!-- Generator: Sketch 54.1 (76490) - https://sketchapp.com -->
    <title>QR Code</title>
    <desc>Created with Sketch.</desc>
    <defs>
        <rect id="path-1" x="0" y="0" width="25" height="25"></rect>
    </defs>
    <g id="QR-Code" stroke="none" stroke-width="1" fill="none" fill-rule="evenodd">
        <g id="Group_821">
            <mask id="mask-2" fill="white">
                <use xlink:href="#path-1"></use>
            </mask>
            <use id="Rectangle_439" fill="#FFFFFF" fill-rule="nonzero" opacity="0" xlink:href="#path-1"></use>
            <path d="M12.4994195,7.35380385 L14.0830431,7.35380385 L14.0830431,9.32752826 L14.8748549,9.32752826 L14.8748549,3.79181179 L14.0830431,3.79181179 L14.0830431,6.56199206 L12.6816987,6.56199206 L12.6816987,5.77018026 L11.0980752,5.77018026 L11.0980752,6.56199206 L12.4994195,6.56199206 L12.4994195,7.35380385 Z M20.4152154,4.58362359 L17.2491292,4.58362359 L17.2491292,7.74970975 L20.4152154,7.74970975 L20.4152154,4.58362359 Z M12.4994195,8.54152154 L12.6816987,8.54152154 L12.6816987,7.74970975 L11.0980752,7.74970975 L11.0980752,8.54152154 L10.9157959,8.54152154 L10.9157959,3.79181179 L10.1239841,3.79181179 L10.1239841,9.32752826 L12.4994195,9.32752826 L12.4994195,8.54152154 Z M13.1310113,4.74152154 L11.5473877,4.74152154 L11.5473877,5.53333333 L13.1310113,5.53333333 L13.1310113,4.74152154 Z M16.4573174,10.1239841 L16.4573174,10.9157959 L14.8748549,10.9157959 L14.8748549,11.7076077 L18.040941,11.7076077 L18.040941,10.1251451 L16.4573174,10.1239841 Z M21.998839,14.8736939 L21.998839,14.0876871 L20.4152154,14.0876871 L20.4152154,14.8794989 L21.998839,14.8736939 Z M21.2070272,13.2912313 L21.2070272,12.4994195 L21.998839,12.4994195 L21.998839,10.9169569 L21.2070272,10.9169569 L21.2070272,10.1251451 L18.8327528,10.1251451 L18.8327528,11.7087687 L20.4163764,11.7087687 L20.4163764,12.5005805 L19.6245646,12.5005805 L19.6245646,13.2923923 L18.8327528,13.2923923 L18.8327528,11.7087687 L18.040941,11.7087687 L18.040941,14.8748549 L19.6245646,14.8748549 L19.6245646,14.0876871 L20.4163764,14.0876871 L20.4163764,13.2958753 L21.2070272,13.2912313 Z M17.2491292,16.4573174 L18.8327528,16.4573174 L18.8327528,15.6666667 L17.2491292,15.6666667 L17.2491292,16.4573174 Z M21.998839,3 L15.6655057,3 L15.6655057,9.33333333 L21.997678,9.33333333 L21.998839,3 Z M21.2070272,8.54152154 L16.4573174,8.54152154 L16.4573174,3.79181179 L21.2070272,3.79181179 L21.2070272,8.54152154 Z M15.6655057,20.4163764 L17.2479682,20.4163764 L17.2479682,19.6245646 L15.6655057,19.6245646 L15.6655057,20.4163764 Z M4.58362359,7.74970975 L7.74970975,7.74970975 L7.74970975,4.58362359 L4.58362359,4.58362359 L4.58362359,7.74970975 Z M12.4994195,19.6245646 L10.9157959,19.6245646 L10.9157959,21.2081882 L12.4994195,21.2081882 L12.4994195,22 L14.0830431,22 L14.0830431,21.2081882 L14.8748549,21.2081882 L14.8748549,22 L16.4573174,22 L16.4573174,21.2081882 L15.6655057,21.2081882 L15.6655057,20.4152154 L12.4994195,20.4152154 L12.4994195,19.6245646 Z M21.998839,21.998839 L21.998839,18.8327528 L20.4152154,18.8327528 L20.4152154,20.4152154 L19.6234036,20.4152154 L19.6234036,19.6234036 L18.8315918,19.6234036 L18.8315918,18.8315918 L20.4152154,18.8315918 L20.4152154,17.2491292 L21.2070272,17.2491292 L21.2070272,16.4573174 L21.998839,16.4573174 L21.998839,15.6666667 L20.4152154,15.6666667 L20.4152154,16.4584785 L19.6234036,16.4584785 L19.6234036,17.2502903 L18.040941,17.2502903 L18.040941,18.042102 L17.2491292,18.042102 L17.2491292,17.2502903 L14.0830431,17.2502903 L14.0830431,16.4584785 L14.8748549,16.4584785 L14.8748549,15.6666667 L15.6666667,15.6666667 L15.6666667,14.8748549 L16.4584785,14.8748549 L16.4584785,13.2912313 L15.6666667,13.2912313 L15.6666667,12.4994195 L13.2912313,12.4994195 L13.2912313,14.0876871 L12.4994195,14.0876871 L12.4994195,17.2537733 L11.7076077,17.2537733 L11.7076077,15.6666667 L10.1239841,15.6666667 L10.1239841,17.2502903 L10.9157959,17.2502903 L10.9157959,18.8327528 L13.2912313,18.8327528 L13.2912313,19.6245646 L15.6666667,19.6245646 L15.6666667,18.040941 L16.4584785,18.040941 L16.4584785,18.8327528 L17.2502903,18.8327528 L17.2502903,19.6245646 L18.042102,19.6245646 L18.042102,20.4163764 L18.8339138,20.4163764 L18.8339138,21.2081882 L19.6257256,21.2081882 L19.6257256,22 L22,22 L21.998839,21.998839 Z M13.2912313,14.8748549 L14.0830431,14.8748549 L14.0830431,15.6666667 L13.2912313,15.6666667 L13.2912313,14.8748549 Z M14.0830431,11.7087687 L14.0830431,10.1251451 L7.74970975,10.1251451 L7.74970975,10.9169569 L6.95789795,10.9169569 L6.95789795,10.1251451 L4.58362359,10.1251451 L4.58362359,11.7076077 L6.16724717,11.7076077 L6.16724717,12.4994195 L5.37543538,12.4994195 L5.37543538,13.2912313 L4.58362359,13.2912313 L4.58362359,11.7087687 L3,11.7087687 L3,14.8748549 L5.37543538,14.8748549 L5.37543538,14.0876871 L6.16724717,14.0876871 L6.16724717,13.2958753 L6.95905897,13.2958753 L6.95905897,12.5040636 L7.75087076,12.5040636 L7.75087076,11.7076077 L8.54268255,11.7076077 L8.54268255,10.9157959 L9.33449435,10.9157959 L9.33449435,12.4994195 L8.54268255,12.4994195 L8.54268255,13.2912313 L10.1263061,13.2912313 L10.1263061,11.7087687 L10.9181179,11.7087687 L10.9181179,14.0876871 L6.95789795,14.0876871 L6.95789795,14.8794989 L11.7076077,14.8794989 L11.7076077,14.0876871 L12.4994195,14.0876871 L12.4994195,11.7087687 L14.0830431,11.7087687 L14.0830431,11.7087687 Z M3.00116101,22 L9.33449435,22 L9.33449435,15.6666667 L3,15.6666667 L3.00116101,22 Z M3.79297281,16.4584785 L8.54268255,16.4584785 L8.54268255,21.2081882 L3.79181179,21.2081882 L3.79181179,16.4573174 L3.79297281,16.4584785 Z M3.00116101,9.33449435 L9.33449435,9.33449435 L9.33449435,3.00116101 L3,3.00116101 L3.00116101,9.33449435 Z M3.79297281,3.79297281 L8.54268255,3.79297281 L8.54268255,8.54268255 L3.79181179,8.54268255 L3.79181179,3.79181179 L3.79297281,3.79297281 Z M4.5847846,20.4163764 L7.75087076,20.4163764 L7.75087076,17.2491292 L4.58362359,17.2491292 L4.5847846,20.4163764 Z" id="Path_61" fill="#222222" fill-rule="nonzero" mask="url(#mask-2)"></path>
            <path d="M19,0 L25,0 L25,6 L24.0055066,6 L24.0055066,1.01155292 L19,1.01155292 L19,0 Z M6,0 L6,1.01155292 L0.994493444,1.01155292 L0.994493444,6 L0,6 L0,0 L6,0 Z M19,25 L19,23.9884471 L24.0055066,23.9884471 L24.0055066,19 L25,19 L25,25 L19,25 Z M6,25 L0,25 L0,19 L0.994493444,19 L0.994493444,23.9884471 L6,23.9884471 L6,25 Z" id="Combined-Shape" fill="#222222" fill-rule="nonzero" mask="url(#mask-2)"></path>
        </g>
    </g>
</svg>