<svg xmlns="http://www.w3.org/2000/svg" width="42" height="42" viewBox="0 0 42 42">
  <g id="Gruppe_461" data-name="Gruppe 461" transform="translate(2090 -5515)">
    <rect id="Rechteck_413" data-name="Rechteck 413" width="42" height="42" transform="translate(-2090 5515)" fill="none"/>
    <g id="Gruppe_446" data-name="Gruppe 446" transform="translate(-3.742 0)">
      <g id="Pfad_571" data-name="Pfad 571" transform="translate(-2077 5524.364)" fill="#49b2ae">
        <path d="M 14.31778526306152 26.24124145507813 C 13.6582670211792 26.24131393432617 13.31337547302246 25.77974128723145 13.20406341552734 25.59989738464355 C 13.17670822143555 25.13397026062012 13.05576038360596 23.34662437438965 12.72101593017578 21.52495193481445 C 12.16092586517334 18.47695159912109 11.30248546600342 16.97992134094238 10.09662532806396 16.94830131530762 C 10.08100605010986 16.94789123535156 10.06535530090332 16.94769096374512 10.0499153137207 16.94769096374512 C 8.115845680236816 16.94769096374512 7.788955688476563 19.78510093688965 7.47281551361084 22.52910232543945 C 7.338355541229248 23.69621086120605 7.211345672607422 24.79859161376953 6.976375579833984 25.59786224365234 C 6.85442590713501 26.0123119354248 6.624165534973145 26.20540237426758 6.251765727996826 26.20540237426758 C 6.037815570831299 26.20540237426758 5.870595932006836 26.14126205444336 5.840665817260742 26.12538146972656 C 5.391565799713135 25.8560619354248 2.970655679702759 23.81767082214355 2.401175737380981 20.68617248535156 L 2.400205612182617 20.68083190917969 L 2.399125814437866 20.67552185058594 C 2.142775774002075 19.421142578125 2.26943564414978 18.14245223999023 2.391925811767578 16.90585136413574 C 2.502585649490356 15.78869152069092 2.607105731964111 14.73349189758301 2.396115779876709 13.83119201660156 L 2.38908576965332 13.80115127563477 L 2.378415822982788 13.77219200134277 C 2.195265769958496 13.27505207061768 1.943315744400024 12.77794170379639 1.676575660705566 12.25164127349854 C 1.175445675849915 11.2628812789917 0.6074457168579102 10.14218139648438 0.3581357300281525 8.719871520996094 C 0.1588557213544846 7.602321624755859 0.2182157188653946 6.30208158493042 0.5250456929206848 5.057231426239014 C 0.8543434739112854 3.721204519271851 1.444807291030884 2.528975009918213 2.234670162200928 1.603780150413513 C 2.897442817687988 1.214663028717041 3.487367868423462 1.033061623573303 4.085755825042725 1.033061623573303 C 4.848285675048828 1.033061623573303 5.549915790557861 1.331531643867493 6.362335681915283 1.677131652832031 C 7.27560567855835 2.065631628036499 8.310735702514648 2.505971670150757 9.643105506896973 2.590401649475098 C 9.766875267028809 2.598031759262085 9.890305519104004 2.601861715316772 10.01083564758301 2.601861715316772 C 11.29771614074707 2.601861715316772 12.24979591369629 2.164191722869873 13.08979606628418 1.778031706809998 C 13.85604572296143 1.425781607627869 14.57980537414551 1.093061685562134 15.50860595703125 1.093061685562134 C 16.20003318786621 1.093061685562134 16.95939445495605 1.275406956672668 17.82828712463379 1.650249838829041 C 18.75038909912109 2.355924606323242 19.3044376373291 3.177618265151978 19.57000541687012 4.231751441955566 C 19.8593864440918 5.38042163848877 19.80504608154297 6.842221736907959 19.40387535095215 8.700701713562012 C 19.22255516052246 9.53961181640625 18.93703651428223 10.1037712097168 18.634765625 10.70105171203613 C 18.224365234375 11.51197147369385 17.79999542236328 12.35050201416016 17.58741569519043 13.87603187561035 C 17.40194511413574 15.20694160461426 17.53801536560059 16.12756156921387 17.66960525512695 17.01787185668945 C 17.82232666015625 18.05119132995605 17.96658515930176 19.02720069885254 17.59502601623535 20.66501235961914 C 16.9000129699707 23.72856903076172 15.36136150360107 25.87020874023438 15.02339553833008 26.09697914123535 C 14.77120780944824 26.19268226623535 14.53389167785645 26.2412223815918 14.31778526306152 26.24124145507813 Z" stroke="none"/>
        <path d="M 4.085756301879883 1.533061981201172 C 3.601140975952148 1.533061981201172 3.113235473632813 1.679723739624023 2.560426712036133 1.993068695068359 C 0.9239616394042969 3.960109710693359 0.5227527618408203 6.794950485229492 0.850616455078125 8.633541107177734 C 1.087076187133789 9.982521057128906 1.613485336303711 11.02114200592041 2.122554779052734 12.02557182312012 C 2.396055221557617 12.56521129608154 2.654396057128906 13.07492160797119 2.84759521484375 13.59935188293457 L 2.868925094604492 13.65725135803223 L 2.882976531982422 13.71734142303467 C 3.112834930419922 14.70032119750977 3.004344940185547 15.79557132720947 2.889495849609375 16.95514297485352 C 2.770666122436523 18.15472030639648 2.647796630859375 19.39515113830566 2.888996124267578 20.57541275024414 L 2.891164779663086 20.58604049682617 L 2.893106460571289 20.59671211242676 C 3.409189224243164 23.43456649780273 5.592387199401855 25.36334800720215 6.068825721740723 25.67801475524902 C 6.102970123291016 25.68846702575684 6.173366546630859 25.70540237426758 6.251755714416504 25.70540237426758 C 6.355195999145508 25.70540237426758 6.423535346984863 25.70540237426758 6.496675491333008 25.45683097839355 C 6.719545364379883 24.69873237609863 6.849966049194336 23.56667137145996 6.976105690002441 22.47187232971191 C 7.125125885009766 21.17841148376465 7.279215812683105 19.84090232849121 7.604035377502441 18.78230094909668 C 8.079365730285645 17.2331714630127 8.902276039123535 16.44769287109375 10.0499153137207 16.44769287109375 C 10.06955528259277 16.44769287109375 10.08945560455322 16.44795227050781 10.1097354888916 16.44847106933594 C 12.079345703125 16.5001106262207 12.82400512695313 19.31886100769043 13.2127857208252 21.43459129333496 C 13.52510643005371 23.13422966003418 13.65417861938477 24.80487632751465 13.69463729858398 25.43214416503906 C 13.79471683502197 25.55695343017578 13.99691200256348 25.74124145507813 14.31784629821777 25.74124145507813 C 14.45186996459961 25.74124145507813 14.60260963439941 25.71321868896484 14.76700210571289 25.65783309936523 C 15.18307876586914 25.25576210021973 16.50381278991699 23.21502685546875 17.1074161529541 20.55439186096191 C 17.45828628540039 19.00778198242188 17.32699584960938 18.11951065063477 17.17497634887695 17.09097290039063 C 17.04459571838379 16.2088508605957 16.89682579040527 15.20903205871582 17.09220504760742 13.80703163146973 C 17.31627655029297 12.1990213394165 17.77973556518555 11.28324127197266 18.18863677978516 10.47527122497559 C 18.48846626281738 9.882831573486328 18.74741554260254 9.371171951293945 18.91512489318848 8.59520149230957 C 19.79187202453613 4.533502578735352 18.80682373046875 3.044921875 17.57349967956543 2.08509635925293 C 16.79230117797852 1.75407600402832 16.11587905883789 1.592994689941406 15.50871562957764 1.593061447143555 C 14.6893253326416 1.593151092529297 14.0449161529541 1.889371871948242 13.29875564575195 2.23236083984375 C 12.4121150970459 2.639921188354492 11.40718555450439 3.101861953735352 10.01082611083984 3.101861953735352 C 9.880045890808105 3.101861953735352 9.746275901794434 3.097702026367188 9.611485481262207 3.089401245117188 C 8.193745613098145 2.999561309814453 7.116786003112793 2.541431427001953 6.16661548614502 2.137231826782227 C 5.404515266418457 1.813041687011719 4.746356010437012 1.533061981201172 4.085756301879883 1.533061981201172 M 4.085758209228516 0.5330600738525391 C 5.875829696655273 0.5330600738525391 7.263152122497559 1.93858528137207 9.674725532531738 2.091402053833008 C 9.78948974609375 2.098472595214844 9.901819229125977 2.101865768432617 10.01082134246826 2.101865768432617 C 12.31737422943115 2.101865768432617 13.38766860961914 0.5932998657226563 15.5086030960083 0.5930652618408203 C 16.21987724304199 0.592987060546875 17.04880905151367 0.7625713348388672 18.0826358795166 1.215631484985352 C 20.08503532409668 2.719961166381836 20.73614501953125 4.898382186889648 19.89261627197266 8.806201934814453 C 19.45112609863281 10.84883117675781 18.44268608093262 11.36114120483398 18.0826358795166 13.94504165649414 C 17.69387626647949 16.73468208312988 18.79790496826172 17.62277221679688 18.0826358795166 20.77563095092773 C 17.36736488342285 23.92850112915039 15.69936561584473 26.37149238586426 15.22155570983887 26.55649185180664 C 14.88231945037842 26.68783378601074 14.58183670043945 26.74124145507813 14.31784534454346 26.74124145507813 C 13.17342567443848 26.74124145507813 12.71098518371582 25.73888206481934 12.71098518371582 25.73888206481934 C 12.71098518371582 25.73888206481934 12.30217552185059 17.50630187988281 10.08352565765381 17.4481315612793 C 10.07228660583496 17.44783782958984 10.0610237121582 17.44768905639648 10.04991626739502 17.44768905639648 C 7.868534088134766 17.44768905639648 8.233785629272461 23.09348106384277 7.456075668334961 25.73888206481934 C 7.228785514831543 26.5113468170166 6.696608543395996 26.70539665222168 6.251757621765137 26.70539665222168 C 5.948079109191895 26.70539665222168 5.685131072998047 26.61500930786133 5.587515830993652 26.55649185180664 C 5.003535270690918 26.20639228820801 2.504674911499023 24.0498218536377 1.909246444702148 20.77563095092773 C 1.399185180664063 18.27973175048828 2.320014953613281 15.70165157318115 1.909246444702148 13.94504165649414 C 1.395444869995117 12.55037212371826 0.2610054016113281 11.06173133850098 -0.1343650817871094 8.806201934814453 C -0.5465450286865234 6.494791030883789 0.06043624877929688 3.331451416015625 1.909246444702148 1.215631484985352 C 2.733278274536133 0.7182216644287109 3.436054229736328 0.5330600738525391 4.085758209228516 0.5330600738525391 Z" stroke="none" fill="#49b2ae"/>
      </g>
      <g id="Vereinigungsmenge_4" data-name="Vereinigungsmenge 4" transform="translate(-2062.082 5521)" fill="#49b2ae">
        <path d="M 6.118057727813721 8.324517250061035 L 2.706457614898682 8.324517250061035 L 2.706457614898682 6.618057727813721 L 2.706457614898682 6.118057727813721 L 2.206457614898682 6.118057727813721 L 0.4999976754188538 6.118057727813721 L 0.4999976754188538 2.706457614898682 L 2.206457614898682 2.706457614898682 L 2.706457614898682 2.706457614898682 L 2.706457614898682 2.206457614898682 L 2.706457614898682 0.4999976754188538 L 6.118057727813721 0.4999976754188538 L 6.118057727813721 2.206457614898682 L 6.118057727813721 2.706457614898682 L 6.618057727813721 2.706457614898682 L 8.324517250061035 2.706457614898682 L 8.324517250061035 6.118057727813721 L 6.618057727813721 6.118057727813721 L 6.118057727813721 6.118057727813721 L 6.118057727813721 6.618057727813721 L 6.118057727813721 8.324517250061035 Z" stroke="none"/>
        <path d="M 5.618057727813721 7.824517726898193 L 5.618057727813721 6.618057727813721 L 5.618057727813721 5.618057727813721 L 6.618057727813721 5.618057727813721 L 7.824517726898193 5.618057727813721 L 7.824517726898193 3.206457614898682 L 6.618057727813721 3.206457614898682 L 5.618057727813721 3.206457614898682 L 5.618057727813721 2.206457614898682 L 5.618057727813721 0.9999976754188538 L 3.206457614898682 0.9999976754188538 L 3.206457614898682 2.206457614898682 L 3.206457614898682 3.206457614898682 L 2.206457614898682 3.206457614898682 L 0.9999976754188538 3.206457614898682 L 0.9999976754188538 5.618057727813721 L 2.206457614898682 5.618057727813721 L 3.206457614898682 5.618057727813721 L 3.206457614898682 6.618057727813721 L 3.206457614898682 7.824517726898193 L 5.618057727813721 7.824517726898193 M 6.618057727813721 8.824517250061035 L 2.206457614898682 8.824517250061035 L 2.206457614898682 6.618057727813721 L -2.328643859073054e-06 6.618057727813721 L -2.328643859073054e-06 2.206457614898682 L 2.206457614898682 2.206457614898682 L 2.206457614898682 -2.328643859073054e-06 L 6.618057727813721 -2.328643859073054e-06 L 6.618057727813721 2.206457614898682 L 8.824517250061035 2.206457614898682 L 8.824517250061035 6.618057727813721 L 6.618057727813721 6.618057727813721 L 6.618057727813721 8.824517250061035 Z" stroke="none" fill="#fff"/>
      </g>
    </g>
  </g>
</svg>
