<svg xmlns="http://www.w3.org/2000/svg" xmlns:xlink="http://www.w3.org/1999/xlink" viewBox="0 0 847.52 786.12"><defs><style>.cls-1{fill:#f2dfcb;}.cls-2{fill:url(#radial-gradient);}.cls-3{fill:#efa3be;}.cls-4{fill:url(#radial-gradient-2);}.cls-5{fill:#d685a6;}.cls-6{fill:url(#radial-gradient-3);}.cls-7{fill:url(#radial-gradient-4);}.cls-8{fill:#1a1a1a;}.cls-9{fill:url(#radial-gradient-5);}.cls-10{fill:url(#radial-gradient-6);}.cls-11{fill:url(#radial-gradient-7);}.cls-12{fill:url(#radial-gradient-8);}.cls-13{fill:#4c4c4b;opacity:0.8;}.cls-14{fill:#7c5131;}.cls-15{fill:#d8af87;}.cls-16{fill:url(#radial-gradient-9);}.cls-17{fill:url(#radial-gradient-10);}.cls-18{fill:url(#linear-gradient);}.cls-19{fill:url(#radial-gradient-11);}.cls-20{fill:url(#radial-gradient-12);}.cls-21{fill:url(#linear-gradient-2);}</style><radialGradient id="radial-gradient" cx="401.05" cy="416.53" r="175.8" gradientTransform="matrix(1, 0.01, -0.02, 1.56, 8.16, -238.47)" gradientUnits="userSpaceOnUse"><stop offset="0" stop-color="#f2dfcb"/><stop offset="0.34" stop-color="#f0dcc8"/><stop offset="0.58" stop-color="#e9d4bf"/><stop offset="0.79" stop-color="#dec6af"/><stop offset="0.98" stop-color="#ceb299"/><stop offset="1" stop-color="#ccaf96"/></radialGradient><radialGradient id="radial-gradient-2" cx="404.57" cy="601.52" fx="375.904838987991" r="52.36" gradientTransform="matrix(0.01, 1, -0.68, 0.01, 808.79, 193.89)" gradientUnits="userSpaceOnUse"><stop offset="0" stop-color="#efa3be"/><stop offset="0.38" stop-color="#e79ab7"/><stop offset="0.97" stop-color="#d685a6"/></radialGradient><radialGradient id="radial-gradient-3" cx="401.05" cy="503.4" r="86.95" gradientTransform="translate(0 -273.39) scale(1 1.54)" gradientUnits="userSpaceOnUse"><stop offset="0.17" stop-color="#d8af87"/><stop offset="0.36" stop-color="#d1a881"/><stop offset="0.64" stop-color="#be946f"/><stop offset="0.97" stop-color="#9e7353"/><stop offset="1" stop-color="#9b7050"/></radialGradient><radialGradient id="radial-gradient-4" cx="404.32" cy="462.79" fy="428.88545038426355" r="50.49" gradientTransform="translate(0 -63.13) scale(1 1.14)" gradientUnits="userSpaceOnUse"><stop offset="0" stop-color="#4c4c4b"/><stop offset="0.34" stop-color="#3f3f3e"/><stop offset="0.96" stop-color="#1c1c1c"/><stop offset="1" stop-color="#1a1a1a"/></radialGradient><radialGradient id="radial-gradient-5" cx="289.77" cy="326.17" r="21.61" gradientTransform="translate(0 -104.63) scale(1 1.4)" gradientUnits="userSpaceOnUse"><stop offset="0.02" stop-color="#4c4c4b"/><stop offset="1" stop-color="#1a1a1a"/></radialGradient><radialGradient id="radial-gradient-6" cx="289.77" cy="311.34" fy="299.1835240255389" r="13.82" gradientTransform="translate(0 -104.63) scale(1 1.4)" gradientUnits="userSpaceOnUse"><stop offset="0" stop-color="#fff"/><stop offset="1" stop-opacity="0"/></radialGradient><radialGradient id="radial-gradient-7" cx="499.07" cy="326.17" r="21.61" xlink:href="#radial-gradient-5"/><radialGradient id="radial-gradient-8" cx="499.07" cy="311.34" r="13.82" xlink:href="#radial-gradient-6"/><radialGradient id="radial-gradient-9" cx="172.61" cy="385.3" fy="334.76084733815463" r="107.97" gradientTransform="matrix(0.97, 0.25, -0.52, 1.98, 205.84, -420.93)" gradientUnits="userSpaceOnUse"><stop offset="0" stop-color="#d8af87"/><stop offset="0.35" stop-color="#d5ab84"/><stop offset="0.66" stop-color="#cca179"/><stop offset="0.96" stop-color="#bd8e68"/><stop offset="1" stop-color="#ba8b65"/></radialGradient><radialGradient id="radial-gradient-10" cx="172.61" cy="385.3" r="160.07" gradientTransform="translate(174.99 -338.15) rotate(13.99) scale(1 1.82)" gradientUnits="userSpaceOnUse"><stop offset="0" stop-color="#d8af87" stop-opacity="0"/><stop offset="1" stop-opacity="0.6"/></radialGradient><linearGradient id="linear-gradient" x1="101.23" y1="340.56" x2="277.74" y2="438.46" gradientUnits="userSpaceOnUse"><stop offset="0" stop-color="#d8af87" stop-opacity="0"/><stop offset="1" stop-opacity="0.4"/></linearGradient><radialGradient id="radial-gradient-11" cx="376.61" cy="385.3" fy="334.76084733061856" r="107.97" gradientTransform="matrix(-0.97, 0.25, 0.52, 1.98, 793.74, -472.73)" xlink:href="#radial-gradient-9"/><radialGradient id="radial-gradient-12" cx="376.61" cy="385.3" r="160.07" gradientTransform="matrix(-0.97, 0.24, 0.44, 1.77, 825.22, -387.48)" xlink:href="#radial-gradient-10"/><linearGradient id="linear-gradient-2" x1="305.23" y1="340.56" x2="481.74" y2="438.46" gradientTransform="matrix(-1, 0, 0, 1, 1006.26, 0)" xlink:href="#linear-gradient"/></defs><title>doggy_EMOJI</title><g id="features"><path class="cls-1" d="M421.13,657.47H381c-85.5,0-155.46-70-155.46-155.46V228.89a25.39,25.39,0,0,1,25.32-25.31,417.17,417.17,0,0,1,300.45,0A25.9,25.9,0,0,1,569.16,211a25.23,25.23,0,0,1,7.43,17.87V502C576.59,587.51,506.63,657.47,421.13,657.47Z"/><path class="cls-2" d="M421.13,657.47H381c-85.5,0-155.46-70-155.46-155.46V228.89a25.39,25.39,0,0,1,25.32-25.31,417.17,417.17,0,0,1,300.45,0A25.9,25.9,0,0,1,569.16,211a25.23,25.23,0,0,1,7.43,17.87V502C576.59,587.51,506.63,657.47,421.13,657.47Z"/><path class="cls-3" d="M371.8,532.79v85c0,15.19,14.56,27.5,32.52,27.5s32.52-12.31,32.52-27.5v-85Z"/><path class="cls-4" d="M371.8,532.79v85c0,15.19,14.56,27.5,32.52,27.5s32.52-12.31,32.52-27.5v-85Z"/><path class="cls-5" d="M391.61,532.79s13.16,40.12,12.71,79.21c0,0,.52-74.44,17.44-79Z"/><path class="cls-6" d="M427.34,406.92H374.76c-27.47,0-49.95,25.52-49.95,56.7V524.4c0,30.29,13.77,57.09,34.54,72.79a12.6,12.6,0,0,0,14.34.85,72.35,72.35,0,0,0,21.9-20.53c5.54-7.92,16.11-7.87,21.62.07,4.49,6.48,10.32,13.21,17.46,18.17a12.41,12.41,0,0,0,15.61-1.15c16.42-14.7,27-37.46,27-62.9V463.62C477.29,432.44,454.82,406.92,427.34,406.92Z"/><path class="cls-7" d="M428,486.94a15.07,15.07,0,0,1,27.24-8.9,41.54,41.54,0,0,0,2.92-15.25c0-25.92-24.09-46.94-53.81-46.94s-53.81,21-53.81,46.94A41.33,41.33,0,0,0,353.43,478a15.06,15.06,0,1,1,18.78,22.42,60.23,60.23,0,0,0,64.21,0A15.05,15.05,0,0,1,428,486.94Z"/><ellipse class="cls-8" cx="289.77" cy="344.57" rx="27.07" ry="37.92"/><ellipse class="cls-9" cx="289.77" cy="352.23" rx="21.61" ry="30.26"/><ellipse class="cls-10" cx="289.77" cy="331.46" rx="13.82" ry="19.35"/><ellipse class="cls-8" cx="499.07" cy="344.57" rx="27.07" ry="37.92"/><ellipse class="cls-11" cx="499.07" cy="352.23" rx="21.61" ry="30.26"/><ellipse class="cls-12" cx="499.07" cy="331.46" rx="13.82" ry="19.35"/><path class="cls-13" d="M443,439.11c-1,2.08-15.15-7.2-38.36-7.14-23,0-37.08,9.25-38.07,7.14-1.15-2.44,16-18.72,37.56-19C426.3,419.9,444.16,436.67,443,439.11Z"/><circle class="cls-14" cx="344.71" cy="506.24" r="2.84"/><circle class="cls-14" cx="342.53" cy="530.13" r="2.84"/><circle class="cls-14" cx="363.24" cy="521.42" r="2.84"/><circle class="cls-14" cx="458.72" cy="506.24" r="2.84"/><circle class="cls-14" cx="460.9" cy="530.13" r="2.84"/><circle class="cls-14" cx="440.19" cy="521.42" r="2.84"/><path class="cls-15" d="M274.51,218.83A30.38,30.38,0,0,0,264.2,196a47.45,47.45,0,0,0-14.4-9.47c-48.62-20.2-118.43,52.41-155.93,162.19S65.38,563.87,114,584.07c33.13,13.76,76.09-15.56,112-70.36-.29-3.87-.45-7.77-.45-11.7V286.17c3.3-19.92,17.39-32.44,24.12-37.39A30.47,30.47,0,0,0,274.51,218.83Z"/><path class="cls-16" d="M274.51,218.83A30.38,30.38,0,0,0,264.2,196a47.45,47.45,0,0,0-14.4-9.47c-48.62-20.2-118.43,52.41-155.93,162.19S65.38,563.87,114,584.07c33.13,13.76,76.09-15.56,112-70.36-.29-3.87-.45-7.77-.45-11.7V286.17c3.3-19.92,17.39-32.44,24.12-37.39A30.47,30.47,0,0,0,274.51,218.83Z"/><path class="cls-17" d="M274.51,218.83A30.38,30.38,0,0,0,264.2,196a47.45,47.45,0,0,0-14.4-9.47c-48.62-20.2-118.43,52.41-155.93,162.19S65.38,563.87,114,584.07c33.13,13.76,76.09-15.56,112-70.36-.29-3.87-.45-7.77-.45-11.7V286.17c3.3-19.92,17.39-32.44,24.12-37.39A30.47,30.47,0,0,0,274.51,218.83Z"/><path class="cls-18" d="M274.51,218.83A30.38,30.38,0,0,0,264.2,196a47.45,47.45,0,0,0-14.4-9.47c-48.62-20.2-118.43,52.41-155.93,162.19S65.38,563.87,114,584.07c33.13,13.76,76.09-15.56,112-70.36-.29-3.87-.45-7.77-.45-11.7V286.17c3.3-19.92,17.39-32.44,24.12-37.39A30.47,30.47,0,0,0,274.51,218.83Z"/><path class="cls-15" d="M527.76,218.83A30.38,30.38,0,0,1,538.07,196a47.53,47.53,0,0,1,14.39-9.47c48.62-20.2,118.44,52.41,155.94,162.19s28.49,215.15-20.13,235.35c-33.12,13.76-76.08-15.56-112-70.36q.44-5.81.44-11.7V286.17c-3.29-19.92-17.39-32.44-24.12-37.39A30.47,30.47,0,0,1,527.76,218.83Z"/><path class="cls-19" d="M527.76,218.83A30.38,30.38,0,0,1,538.07,196a47.53,47.53,0,0,1,14.39-9.47c48.62-20.2,118.44,52.41,155.94,162.19s28.49,215.15-20.13,235.35c-33.12,13.76-76.08-15.56-112-70.36q.44-5.81.44-11.7V286.17c-3.29-19.92-17.39-32.44-24.12-37.39A30.47,30.47,0,0,1,527.76,218.83Z"/><path class="cls-20" d="M527.76,218.83A30.38,30.38,0,0,1,538.07,196a47.53,47.53,0,0,1,14.39-9.47c48.62-20.2,118.44,52.41,155.94,162.19s28.49,215.15-20.13,235.35c-33.12,13.76-76.08-15.56-112-70.36q.44-5.81.44-11.7V286.17c-3.29-19.92-17.39-32.44-24.12-37.39A30.47,30.47,0,0,1,527.76,218.83Z"/><path class="cls-21" d="M527.76,218.83A30.38,30.38,0,0,1,538.07,196a47.53,47.53,0,0,1,14.39-9.47c48.62-20.2,118.44,52.41,155.94,162.19s28.49,215.15-20.13,235.35c-33.12,13.76-76.08-15.56-112-70.36q.44-5.81.44-11.7V286.17c-3.29-19.92-17.39-32.44-24.12-37.39A30.47,30.47,0,0,1,527.76,218.83Z"/></g></svg>
