<svg xmlns="http://www.w3.org/2000/svg" xmlns:xlink="http://www.w3.org/1999/xlink" width="376.438" height="113.168" viewBox="0 0 376.438 113.168">
  <defs>
    <clipPath id="clip-path">
      <path id="Clip_38" data-name="Clip 38" d="M1.962,27.07a6.527,6.527,0,0,0-.1,9.228h0a6.525,6.525,0,0,0,9.227-.1h0L38.156,9.124a36.664,36.664,0,0,1-4.987-4.136h0A36.951,36.951,0,0,1,29.032,0h0" transform="translate(0.313 0.632)" fill="none"/>
    </clipPath>
  </defs>
  <g id="Group_437" data-name="Group 437" transform="translate(7.688 -75.582)">
    <g id="Group_5" data-name="Group 5" transform="matrix(-0.951, 0.309, -0.309, -0.951, 351.471, 151.599)">
      <path id="Stroke_1" data-name="Stroke 1" d="M0,0V18.171" transform="translate(9.335 0.25)" fill="none" stroke="#49b2ae" stroke-linecap="round" stroke-miterlimit="10" stroke-width="1.5"/>
      <path id="Stroke_3" data-name="Stroke 3" d="M18.17,0H0" transform="translate(0.25 9.335)" fill="none" stroke="#49b2ae" stroke-linecap="round" stroke-miterlimit="10" stroke-width="1.5"/>
    </g>
    <path id="Stroke_1-2" data-name="Stroke 1" d="M0,0H42" transform="translate(311 106)" fill="none" stroke="#49b2ae" stroke-linecap="round" stroke-miterlimit="10" stroke-width="1.5" stroke-dasharray="8.451 8.451"/>
    <circle id="Oval_4" data-name="Oval 4" cx="2.5" cy="2.5" r="2.5" transform="translate(353 143)" fill="none" stroke="#49b2ae" stroke-linecap="round" stroke-miterlimit="10" stroke-width="1.5"/>
    <circle id="Oval_4-2" data-name="Oval 4" cx="2.5" cy="2.5" r="2.5" transform="translate(363 83)" fill="none" stroke="#49b2ae" stroke-linecap="round" stroke-miterlimit="10" stroke-width="1.5"/>
    <circle id="Oval_4-3" data-name="Oval 4" cx="2.5" cy="2.5" r="2.5" transform="translate(293 183)" fill="none" stroke="#49b2ae" stroke-linecap="round" stroke-miterlimit="10" stroke-width="1.5"/>
    <g id="Group_115" data-name="Group 115" transform="translate(-8 133.844)">
      <g id="Group_39" data-name="Group 39">
        <path id="Clip_38-2" data-name="Clip 38" d="M1.962,27.07a6.527,6.527,0,0,0-.1,9.228h0a6.525,6.525,0,0,0,9.227-.1h0L38.156,9.124a36.664,36.664,0,0,1-4.987-4.136h0A36.951,36.951,0,0,1,29.032,0h0" transform="translate(0.313 0.632)" fill="none"/>
        <g id="Group_39-2" data-name="Group 39" clip-path="url(#clip-path)">
          <path id="Stroke_37" data-name="Stroke 37" stroke="#49b2ae" d="M0,0H664.049" fill="none" transform="translate(-105.465 12.824)" stroke-linecap="round" stroke-linejoin="round" stroke-miterlimit="10" stroke-width="3" stroke-dasharray="0 9.035"/>
        </g>
      </g>
      <g id="Group_45" data-name="Group 45">
        <path id="Clip_44-2" data-name="Clip 44" d="M1.962,27.07a6.527,6.527,0,0,0-.1,9.228h0a6.525,6.525,0,0,0,9.227-.1h0L38.156,9.124a36.664,36.664,0,0,1-4.987-4.136h0A36.951,36.951,0,0,1,29.032,0h0" transform="translate(0.313 0.632)" fill="none"/>
        <g id="Group_45-2" data-name="Group 45" clip-path="url(#clip-path)">
          <path id="Stroke_43" data-name="Stroke 43" stroke="#49b2ae" d="M0,0H664.049" fill="none" transform="translate(-105.465 23.64)" stroke-linecap="round" stroke-linejoin="round" stroke-miterlimit="10" stroke-width="3" stroke-dasharray="0 9.035"/>
        </g>
      </g>
      <path id="Clip_50-2" data-name="Clip 50" d="M1.962,27.07a6.527,6.527,0,0,0-.1,9.228h0a6.525,6.525,0,0,0,9.227-.1h0L38.156,9.124a36.664,36.664,0,0,1-4.987-4.136h0A36.951,36.951,0,0,1,29.032,0h0" transform="translate(0.313 0.632)" fill="none"/>
      <g id="Group_51" data-name="Group 51" clip-path="url(#clip-path)">
        <path id="Stroke_49" data-name="Stroke 49" stroke="#49b2ae" d="M.39,1.791H0" fill="none" transform="translate(11.593 32.509)" stroke-linecap="round" stroke-linejoin="round" stroke-miterlimit="10" stroke-width="3" stroke-dasharray="0 9.035"/>
      </g>
      <g id="Group_93" data-name="Group 93">
        <path id="Clip_92-2" data-name="Clip 92" d="M1.962,27.07a6.527,6.527,0,0,0-.1,9.228h0a6.525,6.525,0,0,0,9.227-.1h0L38.156,9.124a36.664,36.664,0,0,1-4.987-4.136h0A36.951,36.951,0,0,1,29.032,0h0" transform="translate(0.313 0.632)" fill="none"/>
        <g id="Group_93-2" data-name="Group 93" clip-path="url(#clip-path)">
          <path id="Stroke_91" data-name="Stroke 91" stroke="#49b2ae" d="M0,0H664.049" fill="none" transform="translate(-100.954 7.416)" stroke-linecap="round" stroke-linejoin="round" stroke-miterlimit="10" stroke-width="3" stroke-dasharray="0 9.035"/>
        </g>
      </g>
      <g id="Group_99" data-name="Group 99">
        <path id="Clip_98-2" data-name="Clip 98" d="M1.962,27.07a6.527,6.527,0,0,0-.1,9.228h0a6.525,6.525,0,0,0,9.227-.1h0L38.156,9.124a36.664,36.664,0,0,1-4.987-4.136h0A36.951,36.951,0,0,1,29.032,0h0" transform="translate(0.313 0.632)" fill="none"/>
        <g id="Group_99-2" data-name="Group 99" clip-path="url(#clip-path)">
          <path id="Stroke_97" data-name="Stroke 97" stroke="#49b2ae" d="M0,0H664.049" fill="none" transform="translate(-100.954 18.232)" stroke-linecap="round" stroke-linejoin="round" stroke-miterlimit="10" stroke-width="3" stroke-dasharray="0 9.035"/>
        </g>
      </g>
      <g id="Group_105" data-name="Group 105">
        <path id="Clip_104-2" data-name="Clip 104" d="M1.962,27.07a6.527,6.527,0,0,0-.1,9.228h0a6.525,6.525,0,0,0,9.227-.1h0L38.156,9.124a36.664,36.664,0,0,1-4.987-4.136h0A36.951,36.951,0,0,1,29.032,0h0" transform="translate(0.313 0.632)" fill="none"/>
        <g id="Group_105-2" data-name="Group 105" clip-path="url(#clip-path)">
          <path id="Stroke_103" data-name="Stroke 103" stroke="#49b2ae" d="M0,0H664.049" fill="none" transform="translate(-100.954 29.049)" stroke-linecap="round" stroke-linejoin="round" stroke-miterlimit="10" stroke-width="3" stroke-dasharray="0 9.035"/>
        </g>
      </g>
    </g>
    <path id="Subtraction_1" data-name="Subtraction 1" d="M3177.5,1868.584h0v-16.262l21.846-21.846a34.88,34.88,0,0,0,9.125,9.125l-27.07,27.07a6.621,6.621,0,0,1-3.9,1.913Z" transform="translate(-3178 -1696)" fill="rgba(0,0,0,0)" stroke="#49b2ae" stroke-miterlimit="10" stroke-width="2.5"/>
    <path id="Stroke_118" data-name="Stroke 118" d="M0,0V18.176" transform="translate(51.426 104.433)" fill="none" stroke="#49b2ae" stroke-linecap="round" stroke-miterlimit="10" stroke-width="2.5"/>
    <path id="Stroke_120" data-name="Stroke 120" d="M18.176,0H0" transform="translate(42.338 113.52)" fill="none" stroke="#49b2ae" stroke-linecap="round" stroke-miterlimit="10" stroke-width="2.5"/>
    <path id="Stroke_122" data-name="Stroke 122" d="M36.689,0A36.689,36.689,0,1,1,0,36.689,36.689,36.689,0,0,1,36.689,0Z" transform="translate(14.736 76.832)" fill="none" stroke="#49b2ae" stroke-linejoin="round" stroke-miterlimit="10" stroke-width="2.5"/>
  </g>
</svg>
