<svg xmlns="http://www.w3.org/2000/svg" viewBox="0 0 24 23.401">
  <defs>
    <style>
      .cls-1 {
        fill: #c6c6c6;
      }
    </style>
  </defs>
  <g id="exit-up" transform="translate(0 -0.5)">
    <path id="Shape" class="cls-1" d="M21.6,15.6H2.4c-1.323,0-2.4-.808-2.4-1.8V1.8C0,.808,1.077,0,2.4,0H8.8c.442,0,.8.269.8.6s-.358.6-.8.6H2.4c-.442,0-.8.269-.8.6v12c0,.331.358.6.8.6H21.6c.442,0,.8-.269.8-.6V1.8c0-.331-.358-.6-.8-.6H15.2c-.442,0-.8-.269-.8-.6s.358-.6.8-.6h6.4C22.923,0,24,.808,24,1.8v12C24,14.792,22.923,15.6,21.6,15.6Z" transform="translate(0 8.3)"/>
    <path id="Shape-2" data-name="Shape" class="cls-1" d="M8.224,3.776l-3.6-3.6a.6.6,0,0,0-.848,0l-3.6,3.6a.6.6,0,0,0,.848.848L3.6,2.049V15.6a.6.6,0,0,0,1.2,0V2.049L7.377,4.624a.6.6,0,0,0,.847-.848Z" transform="translate(7.799 0.5)"/>
  </g>
</svg>
