<svg xmlns="http://www.w3.org/2000/svg" width="42" height="42" viewBox="0 0 42 42">
  <g id="Gruppe_464" data-name="Gruppe 464" transform="translate(2032 -5420)">
    <rect id="Rechteck_405" data-name="Rechteck 405" width="42" height="42" transform="translate(-2032 5420)" fill="none"/>
    <g id="Gruppe_450" data-name="Gruppe 450" transform="translate(-2088.657 5068.695)">
      <path id="Pfad_565" data-name="Pfad 565" d="M22.265,6.663c.284-.01-2.312-.175-2.118-1,.248-1.052,1.373-4.536,2.118-4.351.535.132,6.646,2.335,6.646,2.335a35.285,35.285,0,0,0-3.049,12.6c-.359,7.166,2.385,14.394,9.384,13.889s8.374-7.022,8.055-13.889a36.387,36.387,0,0,0-3.075-12.6S46,1.213,46.981,1.312c.695.278,1.977,4,2.1,4.416s-1.152.545-2.1.934a46.422,46.422,0,0,1,2.676,14.06,22.355,22.355,0,0,1-3.3,9.414A13.844,13.844,0,0,1,35.245,36.2a14.374,14.374,0,0,1-12.32-6.063c-.312-.585-3.149-4.468-3.255-9.414a35.28,35.28,0,0,1,.476-7.184A26.4,26.4,0,0,1,22.265,6.663Z" transform="translate(43 354)" fill="gold"/>
      <circle id="Ellipse_3" data-name="Ellipse 3" cx="1.152" cy="1.152" r="1.152" transform="translate(65.73 363.652)" fill="#fff"/>
      <circle id="Ellipse_4" data-name="Ellipse 4" cx="1.152" cy="1.152" r="1.152" transform="translate(64.578 372.346)" fill="#fff"/>
      <circle id="Ellipse_7" data-name="Ellipse 7" cx="1.152" cy="1.152" r="1.152" transform="translate(88.355 372.346)" fill="#fff"/>
      <circle id="Ellipse_8" data-name="Ellipse 8" cx="1.152" cy="1.152" r="1.152" transform="translate(87.203 363.652)" fill="#fff"/>
      <circle id="Ellipse_5" data-name="Ellipse 5" cx="1.152" cy="1.152" r="1.152" transform="translate(67.302 381.144)" fill="#fff"/>
      <circle id="Ellipse_6" data-name="Ellipse 6" cx="1.152" cy="1.152" r="1.152" transform="translate(85.631 381.144)" fill="#fff"/>
    </g>
  </g>
</svg>
