<svg xmlns="http://www.w3.org/2000/svg" width="120.814" height="91.924" viewBox="0 0 120.814 91.924"><g transform="translate(-35.25 -482.94)"><g transform="translate(-147 377)"><rect width="34" height="34" rx="8" transform="translate(226 157)" fill="#49b2ae"/><circle cx="4.533" cy="4.533" r="4.533" transform="translate(238.467 159.833)" fill="#fff"/><g transform="matrix(0.839, 0.545, -0.545, 0.839, 244.755, 160.923)" fill="#fff"><path d="M.572,0l.561,4.027H0Z" stroke="none"/><path d="M 0.5719767212867737 4.76837158203125e-06 L 1.133336663246155 4.026704788208008 L -3.218650817871094e-06 4.026704788208008 L 0.5719767212867737 4.76837158203125e-06 Z" stroke="none" fill="#49b2ae"/></g></g><g transform="translate(-4 -3)"><path d="M119.314,59.657A59.657,59.657,0,1,0,0,59.657" transform="translate(40 514.671)" fill="none" stroke="#8a878d" stroke-linecap="round" stroke-linejoin="round" stroke-miterlimit="10" stroke-width="1.5" opacity="0.5"/><path d="M60,0A59.718,59.718,0,0,0,26.757,10.044a61.447,61.447,0,0,0-12.2,10.774A59.384,59.384,0,0,0,0,60" transform="translate(99.812 489.476) rotate(45)" fill="none" stroke="#49b2ae" stroke-linecap="round" stroke-linejoin="round" stroke-miterlimit="10" stroke-width="5"/><circle cx="2.5" cy="2.5" r="2.5" transform="translate(135 525)" fill="#fff"/></g></g></svg>