<svg xmlns="http://www.w3.org/2000/svg" xmlns:xlink="http://www.w3.org/1999/xlink" viewBox="0 0 760.89 786.12"><defs><style>.cls-1{fill:url(#linear-gradient);}.cls-2{fill:url(#linear-gradient-2);}.cls-3{fill:url(#linear-gradient-3);}.cls-4{fill:url(#linear-gradient-4);}.cls-5{fill:url(#linear-gradient-5);}.cls-6{fill:url(#linear-gradient-6);}.cls-7{fill:url(#linear-gradient-7);}.cls-8{fill:url(#linear-gradient-8);}.cls-9{fill:url(#linear-gradient-9);}.cls-10{fill:url(#radial-gradient);}.cls-11{fill:url(#radial-gradient-2);}.cls-12{fill:url(#radial-gradient-3);}.cls-13{fill:url(#radial-gradient-4);}.cls-14{fill:url(#radial-gradient-5);}.cls-15{fill:url(#radial-gradient-6);}.cls-16{fill:url(#radial-gradient-7);}.cls-17{fill:url(#radial-gradient-8);}.cls-18{fill:#1a1a1a;}.cls-19{fill:url(#radial-gradient-9);}.cls-20{fill:url(#radial-gradient-10);}.cls-21{fill:url(#radial-gradient-11);}.cls-22{fill:url(#radial-gradient-12);}.cls-23{fill:url(#radial-gradient-13);}.cls-24{fill:url(#radial-gradient-14);}.cls-25{fill:url(#radial-gradient-15);}.cls-26{fill:url(#linear-gradient-10);}.cls-27{fill:#7c5131;}</style><linearGradient id="linear-gradient" x1="275.55" y1="89.85" x2="288.2" y2="163.12" gradientUnits="userSpaceOnUse"><stop offset="0" stop-color="#9a6f4a"/><stop offset="0.56" stop-color="#865b3a"/><stop offset="1" stop-color="#7c5131"/></linearGradient><linearGradient id="linear-gradient-2" x1="265.25" y1="103.03" x2="305.61" y2="165.48" gradientUnits="userSpaceOnUse"><stop offset="0" stop-color="#999" stop-opacity="0"/><stop offset="0.34" stop-color="#676767" stop-opacity="0.12"/><stop offset="1" stop-color="#2f2f2f" stop-opacity="0.25"/><stop offset="1" stop-color="#1a1a1a" stop-opacity="0.5"/></linearGradient><linearGradient id="linear-gradient-3" x1="272.83" y1="102.13" x2="296.84" y2="163.27" gradientUnits="userSpaceOnUse"><stop offset="0" stop-color="#d8b59e"/><stop offset="0.36" stop-color="#d1a88f"/><stop offset="1" stop-color="#bf876b"/></linearGradient><linearGradient id="linear-gradient-4" x1="272.3" y1="100.79" x2="305.96" y2="186.5" gradientUnits="userSpaceOnUse"><stop offset="0" stop-color="#999" stop-opacity="0"/><stop offset="0.7" stop-color="#1a1a1a" stop-opacity="0.2"/><stop offset="1" stop-color="#2f2f2f" stop-opacity="0.25"/></linearGradient><linearGradient id="linear-gradient-5" x1="1619.65" y1="89.85" x2="1632.29" y2="163.12" gradientTransform="matrix(-1, 0, 0, 1, 2097.33, 0)" xlink:href="#linear-gradient"/><linearGradient id="linear-gradient-6" x1="1609.34" y1="103.03" x2="1649.7" y2="165.48" gradientTransform="matrix(-1, 0, 0, 1, 2097.33, 0)" xlink:href="#linear-gradient-2"/><linearGradient id="linear-gradient-7" x1="1616.92" y1="102.13" x2="1640.93" y2="163.27" gradientTransform="matrix(-1, 0, 0, 1, 2097.33, 0)" xlink:href="#linear-gradient-3"/><linearGradient id="linear-gradient-8" x1="1616.4" y1="100.79" x2="1650.06" y2="186.5" gradientTransform="matrix(-1, 0, 0, 1, 2097.33, 0)" xlink:href="#linear-gradient-4"/><linearGradient id="linear-gradient-9" x1="373.31" y1="594.41" x2="370.51" y2="741.5" gradientUnits="userSpaceOnUse"><stop offset="0" stop-opacity="0.8"/><stop offset="0.2" stop-color="#24140a" stop-opacity="0.87"/><stop offset="0.41" stop-color="#422512" stop-opacity="0.93"/><stop offset="0.61" stop-color="#573117" stop-opacity="0.97"/><stop offset="0.81" stop-color="#64391b" stop-opacity="0.99"/><stop offset="1" stop-color="#683b1c"/></linearGradient><radialGradient id="radial-gradient" cx="443.67" cy="391.5" fy="353.9451398694371" r="128.95" gradientTransform="translate(-11.24 -358.46) rotate(-0.85) scale(1 1.93)" gradientUnits="userSpaceOnUse"><stop offset="0" stop-color="#9a6f4a"/><stop offset="0.37" stop-color="#966b47"/><stop offset="0.73" stop-color="#8a5f3d"/><stop offset="1" stop-color="#7c5131"/></radialGradient><radialGradient id="radial-gradient-2" cx="443.67" cy="391.5" fy="353.2312484876828" r="131.4" gradientTransform="translate(0 -624.84) scale(1 2.6)" gradientUnits="userSpaceOnUse"><stop offset="0" stop-color="#999" stop-opacity="0"/><stop offset="0.69" stop-color="#888" stop-opacity="0.04"/><stop offset="0.94" stop-color="#4b4b4b" stop-opacity="0.18"/><stop offset="1" stop-color="#2f2f2f" stop-opacity="0.25"/><stop offset="1" stop-color="#1a1a1a" stop-opacity="0.3"/></radialGradient><radialGradient id="radial-gradient-3" cx="1597.27" cy="410.2" fx="1546.3397281115192" fy="402.05301712474716" r="51.58" gradientTransform="matrix(-0.98, -0.23, 0.43, -2.08, 1853.51, 1636.94)" gradientUnits="userSpaceOnUse"><stop offset="0.2" stop-color="#683b1c" stop-opacity="0.5"/><stop offset="0.34" stop-color="#784c2b" stop-opacity="0.34"/><stop offset="0.56" stop-color="#8b5f3c" stop-opacity="0.15"/><stop offset="0.78" stop-color="#966b47" stop-opacity="0.04"/><stop offset="1" stop-color="#9a6f4a" stop-opacity="0"/></radialGradient><radialGradient id="radial-gradient-4" cx="1496.1" cy="619.18" fx="1453.1277232822467" fy="612.3091320526167" r="43.51" gradientTransform="matrix(-1.17, 0.05, -0.02, -1.97, 2244.4, 1484.69)" xlink:href="#radial-gradient-3"/><radialGradient id="radial-gradient-5" cx="1633.28" cy="391.5" fy="353.94513923174355" r="128.95" gradientTransform="matrix(-1.02, -0.01, -0.03, 1.93, 1985.29, -340.71)" xlink:href="#radial-gradient"/><radialGradient id="radial-gradient-6" cx="1633.08" cy="391.35" fy="353.087892887711" r="131.4" gradientTransform="matrix(-1.01, 0, 0, 2.6, 1954.51, -624.61)" xlink:href="#radial-gradient-2"/><radialGradient id="radial-gradient-7" cx="411.84" cy="499.92" fx="360.9072254921088" fy="491.76746027118486" r="51.58" gradientTransform="matrix(0.98, -0.23, -0.43, -2.08, 91.75, 1551.89)" xlink:href="#radial-gradient-3"/><radialGradient id="radial-gradient-8" cx="699.25" cy="471.38" fx="656.2786753439703" fy="464.5103314725718" r="43.51" gradientTransform="matrix(1.17, 0.05, 0.02, -1.97, -557.11, 1234.67)" xlink:href="#radial-gradient-3"/><radialGradient id="radial-gradient-9" cx="279.86" cy="270.96" r="19.54" gradientTransform="translate(-6.09 -36) scale(1 1.4)" gradientUnits="userSpaceOnUse"><stop offset="0.02" stop-color="#4c4c4b"/><stop offset="1" stop-color="#1a1a1a"/></radialGradient><radialGradient id="radial-gradient-10" cx="279.86" cy="257.55" fy="246.5547282832047" r="12.49" gradientTransform="translate(-8.27 -35.87) scale(1 1.4)" gradientUnits="userSpaceOnUse"><stop offset="0" stop-color="#fff"/><stop offset="1" stop-opacity="0"/></radialGradient><radialGradient id="radial-gradient-11" cx="479.04" cy="365.7" r="19.54" gradientTransform="matrix(0, 1, -1.4, 0, 989.88, -135.52)" xlink:href="#radial-gradient-9"/><radialGradient id="radial-gradient-12" cx="479.04" cy="352.29" fy="341.2927665649242" r="12.49" gradientTransform="matrix(0, 1, -1.4, 0, 973.21, -154.19)" xlink:href="#radial-gradient-10"/><radialGradient id="radial-gradient-13" cx="372.6" cy="593.73" r="79.21" gradientTransform="translate(0 -17.45) scale(1 1.03)" gradientUnits="userSpaceOnUse"><stop offset="0" stop-color="#7c5131"/><stop offset="0.47" stop-color="#794e2e"/><stop offset="0.8" stop-color="#714525"/><stop offset="1" stop-color="#683b1c"/></radialGradient><radialGradient id="radial-gradient-14" cx="372.6" cy="593.73" r="112.2" gradientUnits="userSpaceOnUse"><stop offset="0" stop-color="#999" stop-opacity="0"/><stop offset="0.6" stop-color="#707070" stop-opacity="0.1"/><stop offset="1" stop-color="#2f2f2f" stop-opacity="0.25"/><stop offset="1" stop-color="#1a1a1a" stop-opacity="0.5"/></radialGradient><radialGradient id="radial-gradient-15" cx="375.19" cy="200.5" fx="387.65393290793025" fy="129.9424908995286" r="76.91" gradientTransform="translate(-25.58 26.19) rotate(-7.35) scale(1 1.12)" gradientUnits="userSpaceOnUse"><stop offset="0" stop-color="#9a6f4a"/><stop offset="0.49" stop-color="#7c5131"/><stop offset="0.57" stop-color="#794d2d"/><stop offset="1" stop-color="#683b1c"/></radialGradient><linearGradient id="linear-gradient-10" x1="375.4" y1="289.4" x2="375.11" y2="124.54" gradientUnits="userSpaceOnUse"><stop offset="0" stop-opacity="0.8"/><stop offset="1" stop-color="#9a6f4a" stop-opacity="0"/></linearGradient></defs><title>horsey_EMOJI</title><g id="ears"><path class="cls-1" d="M276.07,50.28c-12,9.61-42.6,40.8-27.42,99a1.43,1.43,0,0,0,.09.27c.83,2.06,11.6,27.94,33.86,40.92a2.12,2.12,0,0,0,2.81-.68l30.32-45.85a1.52,1.52,0,0,0,.18-.33c1.14-2.66,13.54-34.22-22.63-64.82a2.61,2.61,0,0,1-.23-.24c-1.28-1.52-13.4-16.15-13.56-26.64A2.1,2.1,0,0,0,276.07,50.28Z"/><path class="cls-2" d="M276.07,50.28c-12,9.61-42.6,40.8-27.42,99a1.43,1.43,0,0,0,.09.27c.83,2.06,11.6,27.94,33.86,40.92a2.12,2.12,0,0,0,2.81-.68l30.32-45.85a1.52,1.52,0,0,0,.18-.33c1.14-2.66,13.54-34.22-22.63-64.82a2.61,2.61,0,0,1-.23-.24c-1.28-1.52-13.4-16.15-13.56-26.64A2.1,2.1,0,0,0,276.07,50.28Z"/><path class="cls-3" d="M274.66,81.37a.82.82,0,0,0-1.48-.41c-5.66,7.79-23.6,37.33-1.73,73.82,0,0,9.74,17.38,24.49,23.75a.83.83,0,0,0,1.11-.52l10.66-34.41a.53.53,0,0,0,0-.12c.19-1.3,3.22-24.18-21.21-40.84a.75.75,0,0,1-.16-.15C285.43,101.35,275.48,89.14,274.66,81.37Z"/><path class="cls-4" d="M274.66,81.37a.82.82,0,0,0-1.48-.41c-5.66,7.79-23.6,37.33-1.73,73.82,0,0,9.74,17.38,24.49,23.75a.83.83,0,0,0,1.11-.52l10.66-34.41a.53.53,0,0,0,0-.12c.19-1.3,3.22-24.18-21.21-40.84a.75.75,0,0,1-.16-.15C285.43,101.35,275.48,89.14,274.66,81.37Z"/><path class="cls-5" d="M477.17,50.28c12,9.61,42.59,40.8,27.42,99,0,.09,0,.18-.09.27-.83,2.06-11.6,27.94-33.87,40.92a2.1,2.1,0,0,1-2.8-.68L437.5,143.94a2.11,2.11,0,0,1-.18-.33C436.19,141,423.79,109.39,460,78.79a1.81,1.81,0,0,0,.24-.24c1.28-1.52,13.4-16.15,13.55-26.64A2.11,2.11,0,0,1,477.17,50.28Z"/><path class="cls-6" d="M477.17,50.28c12,9.61,42.59,40.8,27.42,99,0,.09,0,.18-.09.27-.83,2.06-11.6,27.94-33.87,40.92a2.1,2.1,0,0,1-2.8-.68L437.5,143.94a2.11,2.11,0,0,1-.18-.33C436.19,141,423.79,109.39,460,78.79a1.81,1.81,0,0,0,.24-.24c1.28-1.52,13.4-16.15,13.55-26.64A2.11,2.11,0,0,1,477.17,50.28Z"/><path class="cls-7" d="M478.58,81.37a.81.81,0,0,1,1.47-.41c5.66,7.79,23.61,37.33,1.73,73.82,0,0-9.73,17.38-24.49,23.75a.82.82,0,0,1-1.1-.52L445.52,143.6a.5.5,0,0,1,0-.12c-.2-1.3-3.23-24.18,21.2-40.84a.61.61,0,0,0,.17-.15C467.81,101.35,477.75,89.14,478.58,81.37Z"/><path class="cls-8" d="M478.58,81.37a.81.81,0,0,1,1.47-.41c5.66,7.79,23.61,37.33,1.73,73.82,0,0-9.73,17.38-24.49,23.75a.82.82,0,0,1-1.1-.52L445.52,143.6a.5.5,0,0,1,0-.12c-.2-1.3-3.23-24.18,21.2-40.84a.61.61,0,0,0,.17-.15C467.81,101.35,477.75,89.14,478.58,81.37Z"/><path class="cls-9" d="M411,683.54a61.37,61.37,0,0,1-76.78,0c-2.36,0-14.79-.27-24.84-9.85A32.69,32.69,0,0,1,299,650V613.51c0-10.34,8.87-18.79,19.7-18.79H426.46c10.83,0,19.7,8.45,19.7,18.79V650C446.16,668.45,430.33,683.54,411,683.54Z"/></g><g id="head"><path class="cls-10" d="M491.1,292.48,494,260.12a100.69,100.69,0,0,0,2.87-23.86c0-60.36-53.73-109.29-120-109.29l-1.64,0V632.83a13.81,13.81,0,0,1,6,3.11c43.26,35.62,78.89,21.48,81.6-23.68l12-134.88c19.17-14.21,32.09-40.88,32.09-71.45a102.88,102.88,0,0,0-5.06-32.18c5.17-8.06,8.89-19.13,10-31.56C514.1,317,504.92,295.31,491.1,292.48Z"/><path class="cls-11" d="M491.1,292.48,494,260.12a100.69,100.69,0,0,0,2.87-23.86c0-60.36-53.73-109.29-120-109.29l-1.64,0V632.83a13.81,13.81,0,0,1,6,3.11c43.26,35.62,78.89,21.48,81.6-23.68l12-134.88c19.17-14.21,32.09-40.88,32.09-71.45a102.88,102.88,0,0,0-5.06-32.18c5.17-8.06,8.89-19.13,10-31.56C514.1,317,504.92,295.31,491.1,292.48Z"/><path class="cls-12" d="M437.92,413.67c2.86-34,19.25-59,36.74-59,26.44,0,34.89,29.12,31.06,63.33s-24,61.36-41.41,59.9S435.06,447.7,437.92,413.67Z"/><path class="cls-13" d="M447.46,342.4c-4.16-25.75,12.18-45.72,28.74-49.53,25-5.76,32.74,11.91,36,38s-14.67,57-31.46,59.68S451.62,368.14,447.46,342.4Z"/><path class="cls-14" d="M259.72,292.48l-2.92-32.36a98.19,98.19,0,0,1-2.94-23.86C253.86,175.9,308.67,127,376.27,127l1.66,0V632.83a14.2,14.2,0,0,0-6.09,3.11c-44.13,35.62-80.47,21.48-83.23-23.68L276.42,477.38c-19.55-14.21-32.73-40.88-32.73-71.45a101.18,101.18,0,0,1,5.16-32.18c-5.27-8.06-9.07-19.13-10.23-31.56C236.27,317,245.62,295.31,259.72,292.48Z"/><path class="cls-15" d="M259.68,292.34,256.78,260a99.67,99.67,0,0,1-2.89-23.86c0-60.36,54.18-109.3,121-109.3l1.65,0V632.69a14,14,0,0,0-6,3.1c-43.63,35.63-79.56,21.49-82.29-23.68L276.19,477.24c-19.34-14.22-32.37-40.88-32.37-71.45a102.31,102.31,0,0,1,5.1-32.18c-5.21-8.07-9-19.13-10.11-31.57C236.48,316.81,245.73,295.17,259.68,292.34Z"/><path class="cls-16" d="M312.48,413.67c-2.86-34-19.25-59-36.74-59-26.44,0-34.89,29.12-31.06,63.33s24,61.36,41.41,59.9S315.34,447.7,312.48,413.67Z"/><path class="cls-17" d="M303.41,342.4c4.16-25.75-12.18-45.72-28.74-49.53-25-5.76-32.74,11.91-36,38s14.66,57,31.46,59.68S299.25,368.14,303.41,342.4Z"/></g><g id="features"><ellipse class="cls-18" cx="272.96" cy="336.65" rx="24.48" ry="34.29" transform="translate(-37.14 33.86) rotate(-6.65)"/><ellipse class="cls-19" cx="273.77" cy="343.53" rx="19.54" ry="27.37" transform="translate(-37.93 34) rotate(-6.65)"/><ellipse class="cls-20" cx="271.59" cy="324.87" rx="12.49" ry="17.5" transform="translate(-35.78 33.62) rotate(-6.65)"/><ellipse class="cls-18" cx="478.44" cy="336.64" rx="34.29" ry="24.48" transform="translate(89.9 773.99) rotate(-83.51)"/><ellipse class="cls-21" cx="477.65" cy="343.52" rx="27.37" ry="19.54" transform="matrix(0.11, -0.99, 0.99, 0.11, 82.37, 779.32)"/><ellipse class="cls-22" cx="479.78" cy="324.86" rx="17.5" ry="12.49" transform="translate(102.8 764.87) rotate(-83.51)"/><path class="cls-18" d="M302.88,594.37c-.49,0-1.14,1.66-1.63,1.75a32.72,32.72,0,0,1,31.44,32.46c0,8.06-3.13,18.32-8.23,23.58,10.46-5.72,12.93-15.67,12.93-23.69A34.19,34.19,0,0,0,302.88,594.37Z"/><path class="cls-18" d="M443.76,594.37c.49,0,2.26,1.82,2.74,1.9-17.5.77-32.06,15.08-32.06,32.47,0,8.06,1.48,19,6.58,24.26-10.45-5.72-11.77-16.51-11.77-24.53A34.19,34.19,0,0,1,443.76,594.37Z"/><path class="cls-23" d="M410.22,627.71c0-17.45,14.75-31.6,32.94-31.6a34.23,34.23,0,0,1,10.59,1.68v-.07c0-43-36.33-85.82-81.15-85.82s-81.15,42.84-81.15,85.82c0,.32,0,.63,0,.95a33.92,33.92,0,0,1,13-2.56c18.2,0,33,14.15,33,31.6,0,12.46-8,22.77-18.94,27.91a84.46,84.46,0,0,0,54.13,19.94c21,0,40-5.65,54.4-18.22C416.89,652,410.22,639.59,410.22,627.71Z"/><path class="cls-24" d="M410.22,627.71c0-17.45,14.75-31.6,32.94-31.6a34.23,34.23,0,0,1,10.59,1.68v-.07c0-43-36.33-85.82-81.15-85.82s-81.15,42.84-81.15,85.82c0,.32,0,.63,0,.95a33.92,33.92,0,0,1,13-2.56c18.2,0,33,14.15,33,31.6,0,12.46-7.88,22.79-18.82,27.93a84.13,84.13,0,0,0,54,19.92c21,0,40-5.65,54.4-18.22C416.89,652,410.22,639.59,410.22,627.71Z"/><path class="cls-25" d="M447.48,163a27.84,27.84,0,0,0-.84-6.77v0h0c-5.18-21-34-37-68.84-37-30.77,0-56.87,12.54-66.1,29.93h0s-26.06,37.22,11.62,59.93c.64.39,1.26.76,1.88,1.11,8.17,5.5,15.81,19.24,15.81,19.24,2.22,18.59-10.61,50.88-10.61,50.88,24.75-12.38,35.93-37.49,40.87-60.18A44.84,44.84,0,0,1,377,230.9c2.21,18.58-10.62,50.88-10.62,50.88,31.21-15.61,40.84-51.47,43.59-77.18a37,37,0,0,1,3,6.83c2.21,18.58-10.62,50.88-10.62,50.88C441.33,242.82,447.48,164.81,447.48,163Z"/><path class="cls-26" d="M447.48,163a27.84,27.84,0,0,0-.84-6.77v0h0c-5.18-21-34-37-68.84-37-30.77,0-56.87,12.54-66.1,29.93h0s-26.06,37.22,11.62,59.93c.64.39,1.26.76,1.88,1.11,8.17,5.5,15.81,19.24,15.81,19.24,2.22,18.59-10.61,50.88-10.61,50.88,24.75-12.38,35.93-37.49,40.87-60.18A44.84,44.84,0,0,1,377,230.9c2.21,18.58-10.62,50.88-10.62,50.88,31.21-15.61,40.84-51.47,43.59-77.18a37,37,0,0,1,3,6.83c2.21,18.58-10.62,50.88-10.62,50.88C441.33,242.82,447.48,164.81,447.48,163Z"/><path class="cls-27" d="M415.79,534.48c-1.1,1.77-17.12-6.15-43.35-6.11-26,0-41.9,7.9-43,6.11-1.31-2.09,18.06-16,42.44-16.2C396.9,518.07,417.08,532.39,415.79,534.48Z"/></g></svg>