<svg xmlns="http://www.w3.org/2000/svg" xmlns:xlink="http://www.w3.org/1999/xlink" viewBox="0 0 868.89 786.12"><defs><style>.cls-1{fill:url(#linear-gradient);}.cls-2{fill:url(#linear-gradient-2);}.cls-3{fill:url(#linear-gradient-3);}.cls-4{fill:url(#linear-gradient-4);}.cls-5{fill:url(#linear-gradient-5);}.cls-6{fill:url(#linear-gradient-6);}.cls-7{fill:url(#linear-gradient-7);}.cls-8{fill:url(#linear-gradient-8);}.cls-9{fill:url(#radial-gradient);}.cls-10{fill:url(#radial-gradient-2);}.cls-11{fill:#1a1a1a;}.cls-12{fill:url(#radial-gradient-3);}.cls-13{fill:url(#radial-gradient-4);}.cls-14{fill:url(#radial-gradient-5);}.cls-15{fill:url(#radial-gradient-6);}.cls-16{fill:url(#linear-gradient-9);}.cls-17{fill:url(#linear-gradient-10);}.cls-18{fill:url(#radial-gradient-7);}.cls-19{fill:url(#radial-gradient-8);}.cls-20{fill:#eaadad;}.cls-21{fill:#4c4c4b;}.cls-22{fill:none;stroke:#000;stroke-linecap:round;stroke-miterlimit:10;}</style><linearGradient id="linear-gradient" x1="582.03" y1="304.79" x2="688.63" y2="212.12" gradientUnits="userSpaceOnUse"><stop offset="0" stop-color="gray"/><stop offset="0.4" stop-color="#858585"/><stop offset="0.88" stop-color="#949494"/><stop offset="1" stop-color="#999"/></linearGradient><linearGradient id="linear-gradient-2" x1="600.33" y1="288.35" x2="677.61" y2="215.7" gradientUnits="userSpaceOnUse"><stop offset="0" stop-color="#1a1a1a" stop-opacity="0.3"/><stop offset="1" stop-color="#fff" stop-opacity="0"/></linearGradient><linearGradient id="linear-gradient-3" x1="611.11" y1="295.72" x2="689.69" y2="226.67" gradientUnits="userSpaceOnUse"><stop offset="0" stop-color="#c68181"/><stop offset="0.06" stop-color="#ca8686"/><stop offset="0.39" stop-color="#dc9b9b"/><stop offset="0.71" stop-color="#e6a9a9"/><stop offset="1" stop-color="#eaadad"/></linearGradient><linearGradient id="linear-gradient-4" x1="614.34" y1="297.4" x2="682.29" y2="190.03" gradientUnits="userSpaceOnUse"><stop offset="0" stop-color="#1a1a1a" stop-opacity="0.2"/><stop offset="1" stop-color="#fff" stop-opacity="0"/></linearGradient><linearGradient id="linear-gradient-5" x1="1071.51" y1="304.79" x2="1178.11" y2="212.12" gradientTransform="matrix(-1, 0, 0, 1, 1359.34, 0)" xlink:href="#linear-gradient"/><linearGradient id="linear-gradient-6" x1="1089.81" y1="288.35" x2="1167.09" y2="215.7" gradientTransform="matrix(-1, 0, 0, 1, 1359.34, 0)" xlink:href="#linear-gradient-2"/><linearGradient id="linear-gradient-7" x1="1100.59" y1="295.72" x2="1179.17" y2="226.67" gradientTransform="matrix(-1, 0, 0, 1, 1359.34, 0)" xlink:href="#linear-gradient-3"/><linearGradient id="linear-gradient-8" x1="1103.82" y1="297.4" x2="1171.77" y2="190.03" gradientTransform="matrix(-1, 0, 0, 1, 1359.34, 0)" xlink:href="#linear-gradient-4"/><radialGradient id="radial-gradient" cx="435.56" cy="445.81" r="245.05" gradientTransform="translate(0 96.3) scale(1 0.78)" gradientUnits="userSpaceOnUse"><stop offset="0.4" stop-color="#999"/><stop offset="0.68" stop-color="#969696"/><stop offset="0.86" stop-color="#8e8e8e"/><stop offset="1" stop-color="gray"/></radialGradient><radialGradient id="radial-gradient-2" cx="435.56" cy="445.81" fx="322.4215661401118" r="263.86" gradientTransform="translate(0 61.46) scale(1 0.86)" gradientUnits="userSpaceOnUse"><stop offset="0" stop-color="#999" stop-opacity="0"/><stop offset="0.75" stop-color="#7a7a7a" stop-opacity="0.07"/><stop offset="1" stop-color="#1a1a1a" stop-opacity="0.3"/></radialGradient><radialGradient id="radial-gradient-3" cx="320.91" cy="373.84" r="21.61" gradientTransform="translate(0 -104.63) scale(1 1.4)" gradientUnits="userSpaceOnUse"><stop offset="0.02" stop-color="#4c4c4b"/><stop offset="1" stop-color="#1a1a1a"/></radialGradient><radialGradient id="radial-gradient-4" cx="320.91" cy="359.01" fy="346.8498698841415" r="13.82" gradientTransform="translate(0 -104.63) scale(1 1.4)" gradientUnits="userSpaceOnUse"><stop offset="0" stop-color="#fff"/><stop offset="1" stop-opacity="0"/></radialGradient><radialGradient id="radial-gradient-5" cx="550.21" cy="373.84" r="21.61" xlink:href="#radial-gradient-3"/><radialGradient id="radial-gradient-6" cx="550.21" cy="359.01" r="13.82" xlink:href="#radial-gradient-4"/><linearGradient id="linear-gradient-9" x1="437.27" y1="522.29" x2="436.39" y2="586.05" gradientUnits="userSpaceOnUse"><stop offset="0" stop-color="#6d6d6d"/><stop offset="0.38" stop-color="#6a6a6a"/><stop offset="0.68" stop-color="#616160"/><stop offset="0.94" stop-color="#515150"/><stop offset="1" stop-color="#4c4c4b"/></linearGradient><linearGradient id="linear-gradient-10" x1="437.5" y1="591.72" x2="435.85" y2="534.86" gradientUnits="userSpaceOnUse"><stop offset="0" stop-color="#6d6d6d"/><stop offset="0.46" stop-color="#606060"/><stop offset="1" stop-color="#4c4c4b"/></linearGradient><radialGradient id="radial-gradient-7" cx="435.61" cy="525.31" fy="463.5120511220873" r="102.72" gradientTransform="translate(0 97.68) scale(1 0.8)" gradientUnits="userSpaceOnUse"><stop offset="0" stop-color="#6d6d6d"/><stop offset="0.52" stop-color="#6c6c6c" stop-opacity="0.99"/><stop offset="0.71" stop-color="#676767" stop-opacity="0.96"/><stop offset="0.84" stop-color="#5f5f5f" stop-opacity="0.92"/><stop offset="0.95" stop-color="#545453" stop-opacity="0.85"/><stop offset="1" stop-color="#4c4c4b" stop-opacity="0.8"/></radialGradient><radialGradient id="radial-gradient-8" cx="436.69" cy="498.48" r="41.84" gradientTransform="translate(0 168.02) scale(1 0.66)" gradientUnits="userSpaceOnUse"><stop offset="0" stop-color="#eaadad"/><stop offset="0.41" stop-color="#de9e9e"/><stop offset="1" stop-color="#c68181"/></radialGradient></defs><title>kitty_EMOJI</title><g id="ears"><path class="cls-1" d="M682.52,180.73s-47.25-7.6-141.24,74.61l103.3,80S683.14,259.14,682.52,180.73Z"/><path class="cls-2" d="M682.52,180.73s-47.25-7.6-141.24,74.61l103.3,80S683.14,259.14,682.52,180.73Z"/><path class="cls-3" d="M682.52,180.73S601,215,578,272.21c0,0,49.86,28.23,66.61,63.08C644.58,335.29,684.39,251.05,682.52,180.73Z"/><path class="cls-4" d="M682.52,180.73S601,215,578,272.21c0,0,49.86,28.23,66.61,63.08C644.58,335.29,684.39,251.05,682.52,180.73Z"/><path class="cls-5" d="M187.34,180.73s47.25-7.6,141.24,74.61l-103.3,80S186.72,259.14,187.34,180.73Z"/><path class="cls-6" d="M187.34,180.73s47.25-7.6,141.24,74.61l-103.3,80S186.72,259.14,187.34,180.73Z"/><path class="cls-7" d="M187.34,180.73S268.87,215,291.89,272.21c0,0-49.86,28.23-66.61,63.08C225.28,335.29,185.48,251.05,187.34,180.73Z"/><path class="cls-8" d="M187.34,180.73S268.87,215,291.89,272.21c0,0-49.86,28.23-66.61,63.08C225.28,335.29,185.48,251.05,187.34,180.73Z"/></g><g id="head"><path class="cls-9" d="M676.39,445.83c0,115.08-107.82,208.38-240.83,208.38s-240.83-93.3-240.83-208.38,75.32-205.52,240.83-208.37C585.54,234.87,676.39,330.75,676.39,445.83Z"/><path class="cls-10" d="M676.39,445.83c0,115.08-107.82,208.38-240.83,208.38s-240.83-93.3-240.83-208.38,75.32-205.52,240.83-208.37C585.54,234.87,676.39,330.75,676.39,445.83Z"/></g><g id="features"><ellipse class="cls-11" cx="320.91" cy="411.34" rx="27.07" ry="37.92"/><ellipse class="cls-12" cx="320.91" cy="418.99" rx="21.61" ry="30.26"/><ellipse class="cls-13" cx="320.91" cy="398.22" rx="13.82" ry="19.35"/><ellipse class="cls-11" cx="550.21" cy="411.34" rx="27.07" ry="37.92"/><ellipse class="cls-14" cx="550.21" cy="418.99" rx="21.61" ry="30.26"/><ellipse class="cls-15" cx="550.21" cy="398.22" rx="13.82" ry="19.35"/><rect class="cls-16" x="402.98" y="537.55" width="67.42" height="52.8" rx="26.4"/><rect class="cls-17" x="402.98" y="537.55" width="67.42" height="52.8" rx="26.4"/><path class="cls-18" d="M494.94,489.67c-13.56-12.2-29.09-20.48-43.64-24.23a55.63,55.63,0,0,0-31.39,0c-14.55,3.75-30.08,12-43.64,24.23-29.19,26.26-38.23,60.71-20.18,76.95,16.83,15.14,51.27,9.08,79.52-13.11,28.24,22.19,62.68,28.25,79.51,13.11C533.17,550.38,524.13,515.93,494.94,489.67Z"/><path class="cls-19" d="M454.61,512.57c0-4.86,5.11-8.8,11.42-8.8a12.74,12.74,0,0,1,9.2,3.61,19.38,19.38,0,0,0,2.21-8.9c0-15.12-18.24-27.38-40.75-27.38s-40.75,12.26-40.75,27.38a19.39,19.39,0,0,0,2.22,8.9,12.72,12.72,0,0,1,9.2-3.61c6.31,0,11.42,3.94,11.42,8.8,0,3.47-2.61,6.46-6.4,7.89a57.35,57.35,0,0,0,48.63,0C457.22,519,454.61,516,454.61,512.57Z"/><path class="cls-20" d="M466.1,489.77c-.74,1.59-11.13-8.37-29-8.33s-29.06,9.94-29.82,8.33c-.89-1.88,12.29-14.41,28.9-14.6C453.24,475,467,487.89,466.1,489.77Z"/><circle class="cls-21" cx="385.66" cy="524.53" r="2.84"/><circle class="cls-21" cx="391.34" cy="550.56" r="2.84"/><circle class="cls-21" cx="374.08" cy="541.54" r="2.84"/><path class="cls-22" d="M385.66,524.53A174,174,0,0,0,277.8,499.2"/><path class="cls-22" d="M374.08,541.07a174,174,0,0,0-110.38,9.49"/><path class="cls-22" d="M391.34,550.56a174,174,0,0,0-100,47.6"/><circle class="cls-21" cx="488.22" cy="524.53" r="2.84"/><circle class="cls-21" cx="482.54" cy="550.56" r="2.84"/><circle class="cls-21" cx="499.8" cy="541.54" r="2.84"/><path class="cls-22" d="M488.22,524.53A174,174,0,0,1,596.08,499.2"/><path class="cls-22" d="M499.8,541.07a174,174,0,0,1,110.38,9.49"/><path class="cls-22" d="M482.54,550.56a174,174,0,0,1,100.05,47.6"/></g></svg>
