<?xml version="1.0" encoding="UTF-8"?>
<svg width="11px" height="11px" viewBox="0 0 11 11" version="1.1" xmlns="http://www.w3.org/2000/svg" xmlns:xlink="http://www.w3.org/1999/xlink">
    <!-- Generator: Sketch 55.2 (78181) - https://sketchapp.com -->
    <title>Buttons/Segments/Close</title>
    <desc>Created with Sketch.</desc>
    <g id="User-Journey-1" stroke="none" stroke-width="1" fill="none" fill-rule="evenodd">
        <g id="Journey-1/Connect-[Rocco][no-extra]--20190509---MA" transform="translate(-330.000000, -28.000000)">
            <g id="Group">
                <g id="Group-2" transform="translate(315.000000, 13.000000)">
                    <g id="Buttons/Segments/Close" transform="translate(8.000000, 8.000000)">
                        <g id="Close">
                            <rect id="Rectangle_1" fill="#FFFFFF" fill-rule="nonzero" opacity="0" x="0" y="0" width="25" height="25"></rect>
                            <g id="bx-plus" transform="translate(12.694658, 12.280660) rotate(45.000000) translate(-12.694658, -12.280660) translate(5.694658, 5.280660)" fill="#484848">
                                <path d="M7,0 C6.44771525,1.01453063e-16 6,0.44771525 6,1 L6,6 L1,6 C0.44771525,6 -6.76353751e-17,6.44771525 0,7 C6.76353751e-17,7.55228475 0.44771525,8 1,8 L6,8 L6,13 C6,13.5522847 6.44771525,14 7,14 C7.55228475,14 8,13.5522847 8,13 L8,8 L13,8 C13.5522847,8 14,7.55228475 14,7 C14,6.44771525 13.5522847,6 13,6 L8,6 L8,1 C8,0.44771525 7.55228475,-1.01453063e-16 7,0 Z" id="Path_7"></path>
                            </g>
                        </g>
                    </g>
                </g>
            </g>
        </g>
    </g>
</svg>