<?xml version="1.0" encoding="UTF-8"?>
<svg width="146px" height="146px" viewBox="0 0 146 146" version="1.1" xmlns="http://www.w3.org/2000/svg" xmlns:xlink="http://www.w3.org/1999/xlink">
    <!-- Generator: Sketch 54.1 (76490) - https://sketchapp.com -->
    <title>checkmark-circle</title>
    <desc>Created with Sketch.</desc>
    <g id="Mobile" stroke="none" stroke-width="1" fill="none" fill-rule="evenodd">
        <g id="Success---20190509---MA" transform="translate(-115.000000, -124.000000)" fill="#49B2AE" fill-rule="nonzero" stroke="#49B2AE">
            <g id="checkmark-circle" transform="translate(118.000000, 127.000000)">
                <path d="M70,139.60396 C41.8464004,139.604707 16.4645072,122.598846 5.68975466,96.5161153 C-5.08499787,70.4333846 0.869270408,40.4102758 20.7761176,20.446396 C47.9601795,-6.81502446 92.0354985,-6.81627451 119.221098,20.443604 C146.406698,47.7034824 146.407944,91.901728 119.223882,119.163149 C106.197024,132.296062 88.4719149,139.656628 70,139.60396 Z" id="Shape-path" stroke-width="6" fill-opacity="0.15"></path>
                <path d="M55.3447647,99.1900099 C54.3729654,99.1901034 53.4405914,98.8046712 52.7511765,98.1178515 L30.7704118,76.0771782 C29.3399347,74.6427115 29.3399347,72.3169815 30.7704118,70.8825149 C32.2008888,69.4480482 34.5201504,69.4480482 35.9506275,70.8825149 L55.3378039,90.3237624 L104.039627,41.4916931 C105.470105,40.0572265 107.789366,40.0572265 109.219843,41.4916932 C110.65032,42.9261598 110.65032,45.2518897 109.219843,46.6863564 L57.9244314,98.1192475 C57.2369191,98.8089328 56.3033063,99.1948772 55.3308431,99.1914059 L55.3447647,99.1900099 Z" id="Shape-2" stroke-width="4"></path>
            </g>
        </g>
    </g>
</svg>