<svg xmlns="http://www.w3.org/2000/svg" width="42" height="42" viewBox="0 0 42 42">
  <g id="Gruppe_807" data-name="Gruppe 807" transform="translate(2032 -5467)">
    <g id="Gruppe_792" data-name="Gruppe 792" transform="translate(32 10)">
      <rect id="Rechteck_394" data-name="Rechteck 394" width="42" height="42" transform="translate(-2064 5457)" fill="none"/>
    </g>
    <g id="Gruppe_791" data-name="Gruppe 791" transform="translate(-2615.24 -164.64)">
      <path id="Pfad_980" data-name="Pfad 980" d="M1973.51,242.362V221.439a2.381,2.381,0,0,0-2.4-2.359h-2.672v2.1a.269.269,0,0,1-.255.28h-9.393a.269.269,0,0,1-.255-.28v-2.1h-2.672a2.38,2.38,0,0,0-2.4,2.359v20.923a2.381,2.381,0,0,0,2.4,2.359h15.245A2.381,2.381,0,0,0,1973.51,242.362Z" transform="translate(-1359.22 5421.919)" fill="none" stroke="#49b2ae" stroke-linejoin="round" stroke-miterlimit="10" stroke-width="1"/>
      <path id="Pfad_981" data-name="Pfad 981" d="M1978.072,247.828V227.3h-2.792v.05a.269.269,0,0,1-.255.28h-9.389a.269.269,0,0,1-.255-.28v-.05h-2.792v20.528a.98.98,0,0,0,1,1h13.479A.981.981,0,0,0,1978.072,247.828Z" transform="translate(-1366.066 5415.755)" fill="#49b2ae" stroke="#49b2ae" stroke-linejoin="round" stroke-miterlimit="10" stroke-width="1"/>
      <path id="Pfad_982" data-name="Pfad 982" d="M1981.388,231.794l-.993.01-1.426-3.517-3.262,8.2-2.859-11.695-2.189,7.067h-1.438" transform="translate(-1371.037 5422.488)" fill="none" stroke="#fff" stroke-linecap="round" stroke-miterlimit="10" stroke-width="1"/>
      <path id="Pfad_983" data-name="Pfad 983" d="M1983.411,211.416h-2.4l-.038-.113a2.356,2.356,0,0,0-4.5,0l-.037.113h-2.4a.268.268,0,0,0-.255.278v2.384a.268.268,0,0,0,.255.278h9.374a.268.268,0,0,0,.255-.278v-2.384a.265.265,0,0,0-.253-.278" transform="translate(-1374.457 5428.99)" fill="none" stroke="#49b2ae" stroke-miterlimit="10" stroke-width="1"/>
    </g>
  </g>
</svg>
