<svg xmlns="http://www.w3.org/2000/svg" viewBox="0 0 21.834 23.68">
  <defs>
    <style>
      .cls-1 {
        fill: #49b2ae;
      }
    </style>
  </defs>
  <path id="Fill_1" data-name="Fill 1" class="cls-1" d="M10.9,23.68l-.032,0-.033,0h-.015a.146.146,0,0,0-.027-.006l-.023,0-.007,0-.007,0-.02-.007-.025-.009a.035.035,0,0,1-.014,0l-.006,0a.169.169,0,0,0-.046-.02c0-.005,0-.005-.01-.005L.34,18.632a.594.594,0,0,1-.34-.54V5.562a.6.6,0,0,1,.34-.519L10.636.059a.611.611,0,0,1,.526,0L21.358,5a.58.58,0,0,1,.406.319.626.626,0,0,1,.059.265c0,.006,0,.011.011.016V18.076a.606.606,0,0,1-.341.54l-10.326,5c-.005.005-.005.005-.01.005a.17.17,0,0,1-.037.017l-.008,0a.036.036,0,0,0-.014,0l-.006,0-.023.008-.023.008-.007,0-.007,0a.2.2,0,0,1-.05.01h-.014A.273.273,0,0,1,10.9,23.68ZM1.2,6.552v11.16l9.093,4.4,0-11.159ZM15.767,8.886,11.5,10.955V22.113l9.124-4.421V6.531L16.969,8.3v3.5a.6.6,0,0,1-1.2,0ZM6.232,3.523h0L1.967,5.587,10.9,9.911l4.265-2.065L6.232,3.524ZM10.9,1.265,7.609,2.858l8.929,4.324,3.289-1.595Z"/>
</svg>
