<svg xmlns="http://www.w3.org/2000/svg" width="150" height="145.775" viewBox="0 0 150 145.775">
  <g id="Group_438" data-name="Group 438" transform="translate(-76 -6)">
    <g id="Mask" transform="translate(76 6)" fill="none">
      <path d="M75,0c41.421,0,75,32.633,75,72.887s-33.579,72.887-75,72.887S0,113.142,0,72.887,33.579,0,75,0Z" stroke="none"/>
      <path d="M 75 1.499984741210938 C 65.07164001464844 1.499984741210938 55.44143676757812 3.389236450195312 46.37689971923828 7.115203857421875 C 42.02100372314453 8.905685424804688 37.81981658935547 11.12176513671875 33.89003753662109 13.701904296875 C 29.99800109863281 16.25724792480469 26.33821868896484 19.19174957275391 23.01239776611328 22.42391204833984 C 19.68730163574219 25.65532684326172 16.668701171875 29.21079254150391 14.04046630859375 32.99153137207031 C 11.38783264160156 36.80731201171875 9.10968017578125 40.88619232177734 7.269256591796875 45.11489105224609 C 3.441055297851562 53.91081237792969 1.5 63.25480651855469 1.5 72.8873291015625 C 1.5 82.51985168457031 3.441055297851562 91.86384582519531 7.269256591796875 100.6597747802734 C 9.10968017578125 104.8884735107422 11.38783264160156 108.9673461914062 14.04046630859375 112.7831268310547 C 16.668701171875 116.563850402832 19.68730163574219 120.1193084716797 23.01239776611328 123.3507537841797 C 26.33821868896484 126.5828857421875 29.99800109863281 129.5174102783203 33.89003753662109 132.07275390625 C 37.81981658935547 134.6528625488281 42.02100372314453 136.8689422607422 46.37689971923828 138.659423828125 C 55.44143676757812 142.3854064941406 65.07164001464844 144.2746429443359 75 144.2746429443359 C 84.92835998535156 144.2746429443359 94.55856323242188 142.3854064941406 103.6231002807617 138.659423828125 C 107.97900390625 136.8689422607422 112.18017578125 134.6528625488281 116.1099548339844 132.07275390625 C 120.0019989013672 129.5174102783203 123.6617813110352 126.5828857421875 126.9876022338867 123.3507537841797 C 130.3126983642578 120.1193084716797 133.331298828125 116.563850402832 135.9595336914062 112.7831268310547 C 138.6121520996094 108.9673461914062 140.8903198242188 104.8884735107422 142.7307434082031 100.6597747802734 C 146.5589447021484 91.86384582519531 148.5 82.51985168457031 148.5 72.8873291015625 C 148.5 63.25480651855469 146.5589447021484 53.91081237792969 142.7307434082031 45.11489105224609 C 140.8903198242188 40.88619232177734 138.6121520996094 36.80731201171875 135.9595336914062 32.99153137207031 C 133.331298828125 29.21079254150391 130.3126983642578 25.65532684326172 126.9876022338867 22.42391204833984 C 123.6617813110352 19.19174957275391 120.0019989013672 16.25724792480469 116.1099548339844 13.701904296875 C 112.18017578125 11.12176513671875 107.97900390625 8.905685424804688 103.6231002807617 7.115203857421875 C 94.55856323242188 3.389236450195312 84.92835998535156 1.499984741210938 75 1.499984741210938 M 75 -1.52587890625e-05 C 116.4213562011719 -1.52587890625e-05 150 32.63276672363281 150 72.8873291015625 C 150 113.1418914794922 116.4213562011719 145.7746429443359 75 145.7746429443359 C 33.57864379882812 145.7746429443359 0 113.1418914794922 0 72.8873291015625 C 0 32.63276672363281 33.57864379882812 -1.52587890625e-05 75 -1.52587890625e-05 Z" stroke="none" fill="#e3e3e3"/>
    </g>
    <path id="Stroke_3" data-name="Stroke 3" d="M81,119.775V97.815a14.085,14.085,0,0,0-12.3-13.85L52.383,81.829a2,2,0,0,1-1.758-1.979V73.5a22.5,22.5,0,0,0,9.686-9.133,34.857,34.857,0,0,0,4.4-14.7,7.951,7.951,0,0,0,.717-15.293l1.735-10.234a10.245,10.245,0,0,0-1.822-7.788,10.528,10.528,0,0,0-6.873-4.238c-.125-.021-.247-.036-.372-.055a10.926,10.926,0,0,0-9.82-6.076h-22.9L21.931.889a2.045,2.045,0,0,0-3.118-.3L16.79,2.58A15.964,15.964,0,0,0,16.2,24.747v9.441a7.959,7.959,0,0,0,.086,15.485,34.824,34.824,0,0,0,4.4,14.7A22.513,22.513,0,0,0,30.373,73.5v6.345a2,2,0,0,1-1.755,1.979L12.294,83.963A14.088,14.088,0,0,0,0,97.813v21.962" transform="translate(111 20.5)" fill="none" stroke="#999" stroke-linejoin="round" stroke-miterlimit="10" stroke-width="1.5" opacity="0.27"/>
  </g>
</svg>
