<svg xmlns="http://www.w3.org/2000/svg" width="42" height="42" viewBox="0 0 42 42">
  <g id="Gruppe_470" data-name="Gruppe 470" transform="translate(1973 -5280)">
    <rect id="Rechteck_412" data-name="Rechteck 412" width="42" height="42" transform="translate(-1973 5280)" fill="none"/>
    <g id="Gruppe_457" data-name="Gruppe 457" transform="translate(333.366 11869.856)">
      <g id="Pfad_529" data-name="Pfad 529" transform="translate(-2275.602 -6566.299) rotate(110)" fill="#ff3e81">
        <path d="M 0.7745013833045959 2.067807674407959 C 0.8385734558105469 1.692773699760437 1.028118491172791 1.384390115737915 1.340334177017212 1.148500800132751 C 1.729634165763855 0.8543707728385925 2.20427417755127 0.7500107884407043 2.492444276809692 0.7500107884407043 C 2.935364246368408 0.7500208020210266 3.194904088973999 0.8254708051681519 3.649534225463867 1.086400747299194 L 3.660644054412842 1.092780828475952 L 3.671954154968262 1.09877073764801 C 3.725174188613892 1.126950740814209 3.777294158935547 1.150430798530579 3.827704191207886 1.17314076423645 C 3.89013409614563 1.201260805130005 4.020034313201904 1.259790778160095 4.041044235229492 1.292380809783936 C 4.041134357452393 1.292540788650513 4.051414012908936 1.313100814819336 4.051414012908936 1.3730708360672 C 4.051414012908936 1.48020076751709 4.040764331817627 1.737010836601257 3.942124128341675 1.807670831680298 C 3.894034147262573 1.842120766639709 3.761044263839722 1.899910807609558 3.410644054412842 1.89992082118988 C 3.226354122161865 1.89992082118988 3.023654222488403 1.884480834007263 2.82763409614563 1.869540810585022 C 2.629304170608521 1.854440808296204 2.424224138259888 1.838810801506042 2.231664180755615 1.838810801506042 C 2.041104078292847 1.838810801506042 1.821514129638672 1.88395082950592 1.543504118919373 1.941090822219849 C 1.301524639129639 1.99083137512207 1.009248971939087 2.050902843475342 0.7745013833045959 2.067807674407959 Z" stroke="none"/>
        <path d="M 2.492444276809692 1.072883605957031e-05 C 3.06334400177002 2.074241638183594e-05 3.446604251861572 0.1051807403564453 4.022874355316162 0.4359307289123535 C 4.25201416015625 0.5572407245635986 4.801414012908936 0.6939907073974609 4.801414012908936 1.3730708360672 C 4.80142068862915 2.455446243286133 4.138235569000244 2.649916410446167 3.410661220550537 2.649916410446167 C 3.002726316452026 2.649916410446167 2.574619293212891 2.588814258575439 2.231644153594971 2.588810920715332 C 1.955552339553833 2.588810920715332 1.210004091262817 2.822435140609741 0.6561775207519531 2.822435140609741 C 0.2850403785705566 2.822435140609741 1.430511474609375e-05 2.717534065246582 1.430511474609375e-05 2.367110729217529 C 4.291534423828125e-06 0.6778707504272461 1.537764072418213 1.072883605957031e-05 2.492444276809692 1.072883605957031e-05 Z" stroke="none" fill="#ff3e81"/>
      </g>
      <g id="Pfad_528" data-name="Pfad 528" transform="translate(-2276.155 -6573.25) rotate(90)" fill="#ff3e81">
        <path d="M 1.063721656799316 2.072439908981323 C 0.9599055051803589 2.072439908981323 0.8756786584854126 2.068753719329834 0.8079520463943481 2.063335418701172 C 1.140406250953674 1.214450716972351 2.832776546478271 0.7499999403953552 4.04060173034668 0.7499999403953552 C 4.88914155960083 0.7499999403953552 5.431191921234131 0.8454699516296387 6.271331787109375 1.142910003662109 L 6.280041694641113 1.145990014076233 L 6.288821697235107 1.148859977722168 C 6.356801509857178 1.171059966087341 6.428211688995361 1.1909099817276 6.503821849822998 1.211919903755188 C 6.623600006103516 1.245205998420715 6.925748348236084 1.329181551933289 7.033102035522461 1.409103989601135 C 7.026702404022217 1.581524252891541 6.970695972442627 1.653978109359741 6.795601844787598 1.731339931488037 C 6.538931846618652 1.844759941101074 6.124641895294189 1.899889945983887 5.529061794281006 1.899909973144531 C 5.201661586761475 1.899909973144531 4.858571529388428 1.883790016174316 4.526781558990479 1.868199944496155 C 4.205131530761719 1.853089928627014 3.901331663131714 1.838809967041016 3.617791652679443 1.838809967041016 C 3.385201692581177 1.838809967041016 3.061931610107422 1.879799962043762 2.652661800384521 1.931689977645874 C 2.158111572265625 1.994399905204773 1.542621731758118 2.072439908981323 1.063721656799316 2.072439908981323 Z" stroke="none"/>
        <path d="M 4.04060173034668 0 C 4.96610164642334 0 5.587421417236328 0.1051700115203857 6.521631717681885 0.4359099864959717 C 6.893101692199707 0.5572099685668945 7.783741474151611 0.6939699649810791 7.783741474151611 1.373049974441528 C 7.783741474151611 2.455425500869751 6.708574295043945 2.649905204772949 5.529079437255859 2.649905204772949 C 4.867762565612793 2.649905204772949 4.173796653747559 2.588809967041016 3.617791652679443 2.588809967041016 C 3.170204639434814 2.588809967041016 1.961548805236816 2.822440624237061 1.063718318939209 2.822440624237061 C 0.4620528221130371 2.822440624237061 1.9073486328125e-06 2.717543363571167 1.9073486328125e-06 2.367120027542114 C 1.9073486328125e-06 0.6778800487518311 2.492921829223633 0 4.04060173034668 0 Z" stroke="none" fill="#ff3e81"/>
      </g>
      <g id="Pfad_527" data-name="Pfad 527" transform="translate(-2286.148 -6562.641) rotate(120)" fill="#ff3e81">
        <path d="M 7.662530899047852 2.676037311553955 C 6.86030387878418 1.943740010261536 5.927061557769775 1.248766899108887 4.901715755462646 1.248759031295776 C 4.419245719909668 1.248759031295776 3.742835760116577 1.506399035453796 2.679155588150024 1.926769018173218 C 2.098837614059448 2.156109094619751 1.357377409934998 2.449132442474365 0.8474658131599426 2.580729722976685 C 1.034771919250488 2.12431526184082 1.491434931755066 1.727400779724121 2.211815595626831 1.396508932113647 C 3.249515533447266 0.9198690056800842 4.502045631408691 0.7500389814376831 5.328215599060059 0.7500389814376831 C 5.404488086700439 0.7500389814376831 5.466127872467041 0.7508869171142578 5.515751838684082 0.7521766424179077 C 5.704378604888916 0.9843955039978027 5.993569374084473 1.156673312187195 6.447927951812744 1.31858491897583 C 6.595560073852539 1.420025944709778 7.066312789916992 1.879863262176514 7.599845409393311 2.591598987579346 C 7.621198177337646 2.620084285736084 7.642083168029785 2.648221254348755 7.662530899047852 2.676037311553955 Z" stroke="none"/>
        <path d="M 5.328210830688477 3.910064697265625e-05 C 5.328335762023926 3.910064697265625e-05 5.328121185302734 3.910064697265625e-05 5.328245639801025 3.910064697265625e-05 C 6.548685550689697 4.911422729492188e-05 5.497435569763184 0.1927289962768555 6.729365348815918 0.6225690841674805 C 7.219205856323242 0.7802190780639648 9.198605537414551 3.183619022369385 9.198605537414551 4.06614875793457 C 9.198609352111816 4.51569128036499 9.104011535644531 4.694437026977539 8.936034202575684 4.694437026977539 C 8.283698081970215 4.694437026977539 6.524678707122803 1.998766899108887 4.901715755462646 1.998758792877197 C 4.117227077484131 1.998758792877197 1.476752758026123 3.400174856185913 0.4313268661499023 3.400174856185913 C 0.1631355285644531 3.400174856185913 2.574920654296875e-05 3.308011531829834 2.574920654296875e-05 3.076288938522339 C 5.7220458984375e-06 0.8810930252075195 3.287303447723389 3.910064697265625e-05 5.328210830688477 3.910064697265625e-05 Z" stroke="none" fill="#ff3e81"/>
      </g>
      <g id="Pfad_526" data-name="Pfad 526" transform="translate(-2280.005 -6563.994) rotate(160)" fill="#ff3e81">
        <path d="M 1.402778267860413 2.917997121810913 C 1.079167366027832 2.917997121810913 0.8815988302230835 2.892250299453735 0.766497790813446 2.867530107498169 C 0.8593525290489197 2.288995027542114 1.344379782676697 1.79493772983551 2.211838245391846 1.396497011184692 C 3.249548435211182 0.9198570847511292 4.502098083496094 0.750027060508728 5.328268527984619 0.750027060508728 C 6.479678153991699 0.7500370740890503 7.214648246765137 0.8775270581245422 8.352948188781738 1.274687051773071 L 8.361557960510254 1.277687072753906 L 8.370248794555664 1.280487060546875 C 8.454668045043945 1.30765700340271 8.546268463134766 1.332747101783752 8.643258094787598 1.359307050704956 C 8.881498336791992 1.424557089805603 9.514358520507813 1.597897052764893 9.514358520507813 1.784447073936462 C 9.514358520507813 2.102236986160278 9.514358520507813 2.693767070770264 7.291248321533203 2.69379711151123 C 6.853628158569336 2.693807125091553 6.398198127746582 2.672717094421387 5.957768440246582 2.652317047119141 C 5.536598205566406 2.632807016372681 5.138798236846924 2.614387035369873 4.770758152008057 2.614387035369873 C 4.479818344116211 2.614387035369873 4.06043815612793 2.666787147521973 3.529498338699341 2.733137130737305 C 2.870368242263794 2.815497159957886 2.050078392028809 2.917997121810913 1.402778267860413 2.917997121810913 Z" stroke="none"/>
        <path d="M 5.328258514404297 1.500026941299438 L 5.328268527984619 1.500026941299438 C 4.389738082885742 1.500026941299438 3.289338111877441 1.726907014846802 2.52487850189209 2.078037023544312 C 2.508618831634521 2.085505485534668 2.491927146911621 2.093295812606812 2.474801063537598 2.101434469223022 C 2.80565881729126 2.067753553390503 3.138112545013428 2.026211977005005 3.436508178710938 1.988927125930786 C 3.993328094482422 1.919347047805786 4.433138370513916 1.864387035369873 4.770758152008057 1.864387035369873 C 5.156188488006592 1.864387035369873 5.562458515167236 1.883197069168091 5.992578506469727 1.903116941452026 C 6.424448013305664 1.923117160797119 6.871028423309326 1.94379711151123 7.291248321533203 1.94379711151123 C 7.541919708251953 1.94379711151123 7.753251075744629 1.93580436706543 7.931013107299805 1.922908544540405 C 6.971312522888184 1.600534677505493 6.336533069610596 1.500036478042603 5.328258514404297 1.500026941299438 M 5.328263759613037 2.717971801757813e-05 C 5.328388214111328 2.717971801757813e-05 5.328173637390137 2.717971801757813e-05 5.328298091888428 2.717971801757813e-05 C 6.548758506774902 3.719329833984375e-05 7.368078231811523 0.1367068290710449 8.600018501281738 0.566547155380249 C 9.089868545532227 0.7241971492767334 10.26435852050781 0.9019269943237305 10.26435852050781 1.784446954727173 C 10.26436519622803 3.191079139709473 8.846644401550293 3.443800210952759 7.291253089904785 3.443800210952759 C 6.419179439544678 3.443800210952759 5.503957748413086 3.36439061164856 4.770758152008057 3.364387035369873 C 4.180535793304443 3.364387035369873 2.586735248565674 3.667994022369385 1.402773857116699 3.667994022369385 C 0.6093635559082031 3.667994022369385 1.811981201171875e-05 3.531662225723267 1.811981201171875e-05 3.076257228851318 C 8.58306884765625e-06 0.8810911178588867 3.287335872650146 2.717971801757813e-05 5.328263759613037 2.717971801757813e-05 Z" stroke="none" fill="#ff3e81"/>
      </g>
      <g id="Pfad_525" data-name="Pfad 525" transform="matrix(-0.174, 0.985, -0.985, -0.174, -2279.022, -6573.829)" fill="#ff3e81">
        <path d="M 4.902268409729004 3.732500076293945 C 4.462928295135498 3.732500076293945 3.475978136062622 3.681200265884399 2.557668209075928 3.539860248565674 C 1.301115155220032 3.346464157104492 0.8743829727172852 3.100451946258545 0.7535459995269775 3.009223937988281 C 0.7993074059486389 2.382553577423096 1.289309859275818 1.850661396980286 2.211828231811523 1.426940202713013 C 3.249508142471313 0.9503201842308044 4.502048015594482 0.7805001735687256 5.328227996826172 0.7805001735687256 C 5.60955810546875 0.7805001735687256 5.896078109741211 0.7732201814651489 6.199418067932129 0.7655202150344849 C 6.499458312988281 0.7579001784324646 6.809718132019043 0.7500202059745789 7.11024808883667 0.7500202059745789 C 9.330348014831543 0.7500202059745789 9.51420783996582 1.253750205039978 9.51420783996582 1.814930200576782 C 9.51420783996582 2.046930074691772 9.51420783996582 2.752930164337158 8.093527793884277 3.266660213470459 C 7.274818420410156 3.562710285186768 6.111648082733154 3.732500076293945 4.902268409729004 3.732500076293945 Z" stroke="none"/>
        <path d="M 7.110268115997314 1.500020265579224 C 6.819298267364502 1.500020265579224 6.513917922973633 1.507780075073242 6.218598365783691 1.515280246734619 C 5.923878192901611 1.522760152816772 5.619128227233887 1.530500173568726 5.328227996826172 1.530500173568726 C 4.389678001403809 1.530500173568726 3.289298057556152 1.757370233535767 2.524868011474609 2.108480215072632 C 2.293498992919922 2.214756011962891 1.967324256896973 2.389637470245361 1.745532989501953 2.612715244293213 C 2.547500133514404 2.820640563964844 3.948349952697754 2.982500076293945 4.902268409729004 2.982500076293945 C 6.028118133544922 2.982500076293945 7.098328113555908 2.829000234603882 7.838488101959229 2.561350345611572 C 8.325278282165527 2.385330200195313 8.548348426818848 2.204380035400391 8.637998580932617 2.112190246582031 C 8.744098663330078 2.003080129623413 8.76420783996582 1.923540115356445 8.76420783996582 1.814940214157104 C 8.76420783996582 1.766216039657593 8.760665893554688 1.732879161834717 8.757287979125977 1.712169408798218 C 8.65999698638916 1.651583909988403 8.297691345214844 1.500002384185791 7.110268115997314 1.500020265579224 M 7.110246658325195 2.002716064453125e-05 C 8.731526374816895 -2.384185791015625e-06 10.26420116424561 0.2174739837646484 10.26420783996582 1.814930200576782 C 10.2642183303833 4.010260105133057 6.943138122558594 4.482500076293945 4.902268409729004 4.482500076293945 C 3.916528224945068 4.482500076293945 8.58306884765625e-06 4.241780281066895 8.58306884765625e-06 3.106790065765381 C -1.9073486328125e-06 0.9114501476287842 3.28734827041626 0.03050041198730469 5.328227996826172 0.03050041198730469 C 5.884038925170898 0.03050041198730469 6.503456592559814 2.813339233398438e-05 7.110246658325195 2.002716064453125e-05 Z" stroke="none" fill="#ff3e81"/>
      </g>
      <g id="Pfad_521" data-name="Pfad 521" transform="translate(-2292 -6581.355)" fill="#ff3e81">
        <path d="M 0.4412102401256561 13.52450847625732 C -0.4514897763729095 13.52450847625732 -3.168099880218506 13.52450847625732 -5.352939605712891 12.99722862243652 C -6.366139888763428 12.75270843505859 -7.157999992370605 12.42451858520508 -7.706509590148926 12.02176856994629 C -8.268109321594238 11.60940837860107 -8.564080238342285 11.12673854827881 -8.611330032348633 10.54619884490967 C -8.670049667358398 9.82477855682373 -8.099169731140137 8.773179054260254 -7.003869533538818 7.585108757019043 C -5.449489593505859 5.899078845977783 -2.865079879760742 3.979818820953369 -0.09057976305484772 2.451088666915894 C 2.637770175933838 0.9477887749671936 5.114840030670166 0.05028875172138214 6.535580158233643 0.05028875172138214 C 8.512829780578613 0.05028875172138214 11.00247001647949 0.8544687628746033 13.03291988372803 2.148998737335205 C 15.07081031799316 3.44826865196228 16.28746032714844 5.005598545074463 16.28746032714844 6.314848899841309 C 16.28746032714844 6.87471866607666 15.75102996826172 7.626558780670166 14.77698993682861 8.431868553161621 C 13.78709030151367 9.250288963317871 12.37122058868408 10.10532855987549 10.68245029449463 10.90457916259766 C 7.430910110473633 12.4434289932251 3.724820137023926 13.5181884765625 1.669920206069946 13.5181884765625 C 1.539710283279419 13.5181884765625 1.385510206222534 13.51937866210938 1.210670232772827 13.52073860168457 C 0.986390233039856 13.52248859405518 0.7274502515792847 13.52450847625732 0.4412102401256561 13.52450847625732 Z" stroke="none"/>
        <path d="M 6.535580158233643 0.8002891540527344 C 3.915890216827393 0.8002891540527344 -3.11691951751709 4.475439071655273 -6.452449798583984 8.093479156494141 C -7.857049942016602 9.617038726806641 -7.87455940246582 10.35324859619141 -7.863800048828125 10.48535919189453 C -7.844039916992188 10.7282190322876 -7.757840156555176 11.05360889434814 -7.262629508972168 11.41722869873047 C -6.794710159301758 11.76080894470215 -6.092999458312988 12.04709911346436 -5.176989555358887 12.26816844940186 C -3.078879356384277 12.77450847625732 -0.4294295310974121 12.77450847625732 0.4412102699279785 12.77450847625732 C 0.7252802848815918 12.77450847625732 0.9822502136230469 12.77249908447266 1.204830169677734 12.77075862884521 C 1.381900310516357 12.76938915252686 1.538060188293457 12.7681884765625 1.669920444488525 12.7681884765625 C 3.594560146331787 12.7681884765625 7.249950408935547 11.69931888580322 10.36161994934082 10.22665882110596 C 11.99493026733398 9.453668594360352 13.35647964477539 8.633158683776855 14.29909038543701 7.853838920593262 C 15.27864074707031 7.043978691101074 15.53746032714844 6.49302864074707 15.53746032714844 6.314848899841309 C 15.53746032714844 5.278839111328125 14.42328071594238 3.924899101257324 12.62973022460938 2.781408309936523 C 10.71304988861084 1.559409141540527 8.377900123596191 0.8002891540527344 6.535580158233643 0.8002891540527344 M 6.535580158233643 -0.6997108459472656 C 10.93451023101807 -0.6997108459472656 17.03746032714844 2.872259140014648 17.03746032714844 6.314848899841309 C 17.03746032714844 9.757429122924805 6.068850517272949 14.2681884765625 1.669920444488525 14.2681884765625 C 1.373082160949707 14.2681884765625 0.9499282836914063 14.27450847625732 0.4412145614624023 14.27450847625732 C -2.69129753112793 14.27450847625732 -9.079851150512695 14.03511619567871 -9.358860015869141 10.6070384979248 C -9.68317985534668 6.622248649597168 2.136650085449219 -0.6997108459472656 6.535580158233643 -0.6997108459472656 Z" stroke="none" fill="#ff3e81"/>
      </g>
      <g id="Pfad_524" data-name="Pfad 524" transform="matrix(0.035, 0.999, -0.999, 0.035, -2269.852, -6575.134)" fill="#ff3e81">
        <path d="M 4.546533584594727 2.886097192764282 C 4.306163787841797 2.886097192764282 4.012653827667236 2.849757194519043 3.70189380645752 2.81128716468811 C 3.352283716201782 2.768007278442383 2.990773916244507 2.723257303237915 2.644473791122437 2.723257303237915 C 2.273176193237305 2.723257303237915 1.113403558731079 2.366185665130615 0.7627496719360352 2.094467163085938 C 0.8907836675643921 1.395526528358459 1.957194924354553 0.7499972581863403 2.765763759613037 0.7499972581863403 C 3.115603685379028 0.7499972581863403 3.637513875961304 1.039907217025757 4.06446361541748 1.471397280693054 C 4.505863666534424 1.917477250099182 4.791063785552979 2.455997228622437 4.791063785552979 2.843317270278931 C 4.791063785552979 2.851994037628174 4.790894985198975 2.859888792037964 4.790609359741211 2.867036819458008 C 4.745542526245117 2.876293182373047 4.668921947479248 2.886097192764282 4.546533584594727 2.886097192764282 Z" stroke="none"/>
        <path d="M 2.761068105697632 1.50001335144043 C 2.554837226867676 1.501391410827637 2.213071584701538 1.592925310134888 1.908721446990967 1.790651798248291 C 2.19828987121582 1.885160684585571 2.498538494110107 1.960854053497314 2.661210775375366 1.973286628723145 C 2.970041275024414 1.974345207214355 3.274092197418213 2.004493236541748 3.570863485336304 2.03972601890564 C 3.569202899932861 2.03797459602356 3.567554712295532 2.036240100860596 3.565883636474609 2.034487247467041 C 3.206827402114868 1.657793283462524 2.865267276763916 1.510584354400635 2.761068105697632 1.50001335144043 M 2.765763759613037 -2.86102294921875e-06 C 3.950223922729492 -2.86102294921875e-06 5.541073799133301 1.56922721862793 5.541063785552979 2.843327283859253 C 5.541063785552979 3.476804971694946 5.11773157119751 3.636098384857178 4.546538352966309 3.636098384857178 C 3.968894481658936 3.636098384857178 3.240029335021973 3.473257303237915 2.644473791122437 3.473257303237915 C 2.072383880615234 3.473257303237915 -6.198883056640625e-06 2.891007423400879 -6.198883056640625e-06 2.232297420501709 C 3.814697265625e-06 0.9581873416900635 1.581303834915161 -2.86102294921875e-06 2.765763759613037 -2.86102294921875e-06 Z" stroke="none" fill="#ff3e81"/>
      </g>
      <g id="Pfad_523" data-name="Pfad 523" transform="matrix(0.342, 0.94, -0.94, 0.342, -2271.95, -6578.827)" fill="#ff3e81">
        <path d="M 2.930245876312256 3.724082231521606 C 2.783767938613892 3.684590339660645 2.317654132843018 3.461663007736206 1.737606287002563 3.04979133605957 C 1.121843099594116 2.612564086914063 0.842523992061615 2.298638105392456 0.7558406591415405 2.171394824981689 C 0.8522129058837891 1.482329726219177 2.118026971817017 0.7499909400939941 2.986646413803101 0.7499812841415405 C 3.790176391601563 0.7499812841415405 4.957386493682861 1.250891327857971 4.957386493682861 2.035831212997437 C 4.957376480102539 2.824270248413086 3.761729001998901 3.700678586959839 2.930245876312256 3.724082231521606 Z" stroke="none"/>
        <path d="M 2.986636400222778 1.49998140335083 L 2.986646413803101 1.49998140335083 C 2.552213668823242 1.49998140335083 1.970991373062134 1.79508113861084 1.677161693572998 2.054087162017822 C 2.066095113754272 2.386380195617676 2.691116094589233 2.804366111755371 3.028586149215698 2.958901882171631 C 3.237019538879395 2.915427684783936 3.536565065383911 2.782296657562256 3.79823637008667 2.570441246032715 C 4.109456062316895 2.318461418151855 4.207046508789063 2.090391397476196 4.207376480102539 2.035821199417114 C 4.207376480102539 2.007291316986084 4.13490629196167 1.903751373291016 3.967396259307861 1.79366135597229 C 3.700096368789673 1.618001222610474 3.305966377258301 1.49998140335083 2.986636400222778 1.49998140335083 M 2.986636400222778 -1.859664916992188e-05 C 4.171106338500977 -1.859664916992188e-05 5.707386493682861 0.7617313861846924 5.707376480102539 2.035831212997437 C 5.707376480102539 3.309941291809082 4.080996513366699 4.474551200866699 2.896536350250244 4.474561214447021 C 2.324446439743042 4.474561214447021 -1.382827758789063e-05 2.912811279296875 -1.382827758789063e-05 2.254091262817383 C -3.814697265625e-06 0.9799911975860596 1.802176237106323 -8.58306884765625e-06 2.986636400222778 -1.859664916992188e-05 Z" stroke="none" fill="#ff3e81"/>
      </g>
      <g id="Pfad_522" data-name="Pfad 522" transform="translate(-2278.386 -6582.856) rotate(45)" fill="#ff3e81">
        <path d="M 4.002112865447998 6.458925724029541 C 3.573562860488892 6.458925724029541 2.784352779388428 6.383365631103516 2.064272880554199 6.217435836791992 C 1.074062705039978 5.989260196685791 0.8031925559043884 5.732136249542236 0.7503122091293335 5.670166969299316 C 0.7673181891441345 4.833674907684326 1.387281537055969 3.60495924949646 2.339532852172852 2.525475740432739 C 3.290982723236084 1.446895718574524 4.368602752685547 0.7499656677246094 5.084902763366699 0.7499556541442871 C 5.994132995605469 0.7499457001686096 6.95731258392334 1.033955693244934 7.661402702331543 1.509685635566711 C 8.179462432861328 1.859725713729858 8.797012329101563 2.475815773010254 8.797002792358398 3.423025608062744 C 8.796993255615234 4.120105743408203 8.199162483215332 4.875105857849121 7.156792640686035 5.494435787200928 C 6.185873031616211 6.071315765380859 4.918102741241455 6.458915710449219 4.002112865447998 6.458925724029541 Z" stroke="none"/>
        <path d="M 5.084902763366699 1.499955654144287 C 4.759902954101563 1.499955654144287 3.879862785339355 1.91307544708252 2.901972770690918 3.021625518798828 C 2.147999286651611 3.876334667205811 1.715385913848877 4.714240074157715 1.562980175018311 5.290737152099609 C 2.120552539825439 5.505362033843994 3.244651794433594 5.70893383026123 4.002112865447998 5.708925724029541 C 4.782492637634277 5.708915710449219 5.922212600708008 5.355575561523438 6.773693084716797 4.849665641784668 C 7.547192573547363 4.39007568359375 8.047002792358398 3.830085754394531 8.047002792358398 3.423025608062744 C 8.047002792358398 2.926925659179688 7.776002883911133 2.492265701293945 7.241512775421143 2.1311354637146 C 6.656562805175781 1.735905647277832 5.850352764129639 1.499945640563965 5.084902763366699 1.499955654144287 M 5.084892749786377 -4.434585571289063e-05 C 7.12578296661377 -6.437301635742188e-05 9.547022819519043 1.227715492248535 9.547002792358398 3.423035621643066 C 9.546982765197754 5.618345737457275 6.043012619018555 7.208905696868896 4.00212287902832 7.208925724029541 C 3.016382694244385 7.208935737609863 -5.7220458984375e-05 6.840175628662109 -4.673004150390625e-05 5.705185890197754 C -2.765655517578125e-05 3.509865760803223 3.04399299621582 -2.431869506835938e-05 5.084892749786377 -4.434585571289063e-05 Z" stroke="none" fill="#ff3e81"/>
      </g>
      <g id="Pfad_530" data-name="Pfad 530" transform="translate(-2274.874 -6562.319) rotate(110)" fill="#ff3e81">
        <path d="M 0.7602120637893677 3.579700946807861 C 0.7734804749488831 3.404886722564697 0.7969714999198914 3.305843353271484 0.8138625025749207 3.254210472106934 C 0.8366183042526245 3.252322673797607 0.8679376244544983 3.250842809677124 0.9102062582969666 3.250842809677124 C 0.9944862127304077 3.250842809677124 1.096236228942871 3.256542682647705 1.20396625995636 3.262572765350342 C 1.340236186981201 3.270212650299072 1.494686245918274 3.278862714767456 1.659916281700134 3.278862714767456 C 2.010396957397461 3.278862714767456 2.278972864151001 3.106298685073853 2.519116401672363 2.824695825576782 C 2.35587477684021 3.114933252334595 2.214055061340332 3.28763484954834 2.13531231880188 3.353227138519287 C 1.96741783618927 3.364869594573975 1.775881290435791 3.404244184494019 1.543516278266907 3.452002763748169 C 1.296601891517639 3.502757787704468 0.9973072409629822 3.564270496368408 0.7602120637893677 3.579700946807861 Z" stroke="none"/>
        <path d="M 0.6561897993087769 4.333346843719482 C 0.2850526869297028 4.333346843719482 2.623176624183543e-05 4.228446006774902 2.623176624183543e-05 3.87802267074585 C 1.910285936901346e-05 2.673779487609863 0.3585285544395447 2.500838994979858 0.9102106690406799 2.500838994979858 C 1.132395029067993 2.500838994979858 1.385815739631653 2.528862714767456 1.659916281700134 2.528862714767456 C 2.194498300552368 2.528862714767456 2.973768711090088 1.509712183178635e-05 3.633091449737549 1.509712183178635e-05 C 3.677871465682983 1.509712183178635e-05 3.722076892852783 0.01167244091629982 3.765636205673218 0.03658275306224823 C 4.450536251068115 0.4282627403736115 3.186336278915405 4.099722862243652 2.231656312942505 4.099722862243652 C 1.955564379692078 4.099722862243652 1.210016250610352 4.333346843719482 0.6561897993087769 4.333346843719482 Z" stroke="none" fill="#ff3e81"/>
      </g>
    </g>
  </g>
</svg>
