<svg xmlns="http://www.w3.org/2000/svg" width="42" height="42" viewBox="0 0 42 42">
  <g id="Gruppe_476" data-name="Gruppe 476" transform="translate(1973 -5186)">
    <rect id="Rechteck_410" data-name="Rechteck 410" width="42" height="42" transform="translate(-1973 5186)" fill="none"/>
    <g id="Gruppe_455" data-name="Gruppe 455" transform="translate(-2033.515 4878.893)">
      <path id="Path" d="M9.3,5.469H7.2V1.282H8.738a.673.673,0,0,0,.7-.641A.673.673,0,0,0,8.738,0H1.262a.673.673,0,0,0-.7.641.673.673,0,0,0,.7.641H2.79l.028,4.188H.7A.673.673,0,0,0,0,6.11a.673.673,0,0,0,.7.641h.607V26A2.522,2.522,0,0,0,1.8,27.493l2.5,3.424V33.8a.673.673,0,0,0,.7.641.673.673,0,0,0,.7-.641V30.917l2.5-3.424A2.524,2.524,0,0,0,8.691,26V6.751H9.3A.673.673,0,0,0,10,6.11a.673.673,0,0,0-.7-.641Z" transform="matrix(0.799, 0.602, -0.602, 0.799, 88.241, 312.107)" fill="#ff3e81"/>
      <rect id="Rechteck_66" data-name="Rechteck 66" width="4" height="4" transform="matrix(0.799, 0.602, -0.602, 0.799, 86.611, 319.697)" fill="#fff"/>
    </g>
  </g>
</svg>
