<svg xmlns="http://www.w3.org/2000/svg" width="42.092" height="42.092" viewBox="0 0 42.092 42.092">
  <g id="Gruppe_479" data-name="Gruppe 479" transform="translate(2086.092 -5136.908)">
    <rect id="Rechteck_396" data-name="Rechteck 396" width="42" height="42" transform="translate(-2086 5137)" fill="none"/>
    <g id="Gruppe_445" data-name="Gruppe 445">
      <g id="Gruppe_443" data-name="Gruppe 443" transform="translate(-4251.252 52.81) rotate(-45)">
        <g id="Rechteck_397" data-name="Rechteck 397" transform="translate(-2082 5144)" fill="#fff" stroke="#49b2ae" stroke-width="2">
          <rect width="36" height="18" rx="9" stroke="none"/>
          <rect x="1" y="1" width="34" height="16" rx="8" fill="none"/>
        </g>
        <g id="Rechteck_398" data-name="Rechteck 398" transform="translate(-2082 5144)" fill="#49b2ae" stroke="#49b2ae" stroke-width="2">
          <path d="M9,0h9a0,0,0,0,1,0,0V18a0,0,0,0,1,0,0H9A9,9,0,0,1,0,9V9A9,9,0,0,1,9,0Z" stroke="none"/>
          <path d="M9,1h7a1,1,0,0,1,1,1V16a1,1,0,0,1-1,1H9A8,8,0,0,1,1,9V9A8,8,0,0,1,9,1Z" fill="none"/>
        </g>
      </g>
      <g id="Gruppe_444" data-name="Gruppe 444" transform="translate(-1)">
        <g id="Ellipse_13" data-name="Ellipse 13" transform="translate(-2068 5154)" fill="#49b2ae" stroke="#fff" stroke-width="1">
          <circle cx="12" cy="12" r="12" stroke="none"/>
          <circle cx="12" cy="12" r="11.5" fill="none"/>
        </g>
      </g>
    </g>
    <line id="Linie_11" data-name="Linie 11" x2="23" transform="translate(-2064.132 5174.632) rotate(-45)" fill="none" stroke="#fff" stroke-width="2"/>
  </g>
</svg>
